<?xml version="1.0" encoding="UTF-8" standalone="no"?>
<!DOCTYPE svg PUBLIC "-//W3C//DTD SVG 1.1//EN"
 "http://www.w3.org/Graphics/SVG/1.1/DTD/svg11.dtd">
<!-- Generated by graphviz version 2.40.1 (20161225.0304)
 -->
<!-- Title: dependencies Pages: 1 -->
<svg width="2100pt" height="284pt"
 viewBox="0.00 0.00 2100.00 284.00" xmlns="http://www.w3.org/2000/svg" xmlns:xlink="http://www.w3.org/1999/xlink">
<g id="graph0" class="graph" transform="scale(1 1) rotate(0) translate(4 280)">
<title>dependencies</title>
<polygon fill="#ffffff" stroke="transparent" points="-4,4 -4,-280 2096,-280 2096,4 -4,4"/>
<text text-anchor="start" x="1025.0091" y="-42.4" font-family="sans-serif" font-weight="bold" font-size="14.00" fill="#000000">Legend</text>
<polygon fill="#ffffb3" stroke="transparent" points="812,-10 812,-30 832,-30 832,-10 812,-10"/>
<text text-anchor="start" x="835.629" y="-15.4" font-family="sans-serif" font-size="14.00" fill="#000000"> &#160;Declarations</text>
<polygon fill="#8dd3c7" stroke="transparent" points="925,-10 925,-30 945,-30 945,-10 925,-10"/>
<text text-anchor="start" x="948.7251" y="-15.4" font-family="sans-serif" font-size="14.00" fill="#000000"> &#160;Module</text>
<polygon fill="#80b1d3" stroke="transparent" points="1011,-10 1011,-30 1031,-30 1031,-10 1011,-10"/>
<text text-anchor="start" x="1034.7812" y="-15.4" font-family="sans-serif" font-size="14.00" fill="#000000"> &#160;Bootstrap</text>
<polygon fill="#fdb462" stroke="transparent" points="1108,-10 1108,-30 1128,-30 1128,-10 1108,-10"/>
<text text-anchor="start" x="1131.6732" y="-15.4" font-family="sans-serif" font-size="14.00" fill="#000000"> &#160;Providers</text>
<polygon fill="#fb8072" stroke="transparent" points="1204,-10 1204,-30 1224,-30 1224,-10 1204,-10"/>
<text text-anchor="start" x="1227.7258" y="-15.4" font-family="sans-serif" font-size="14.00" fill="#000000"> &#160;Exports</text>
<g id="clust1" class="cluster">
<title>cluster_ActionTrackerTableModule</title>
<polygon fill="none" stroke="#000000" stroke-dasharray="1,5" points="8,-70 8,-268 2084,-268 2084,-70 8,-70"/>
</g>
<g id="clust2" class="cluster">
<title>cluster_ActionTrackerTableModule_declarations</title>
<polygon fill="none" stroke="#000000" points="16,-78 16,-130 2076,-130 2076,-78 16,-78"/>
</g>
<g id="clust15" class="cluster">
<title>cluster_ActionTrackerTableModule_exports</title>
<polygon fill="none" stroke="#000000" points="79,-208 79,-260 2014,-260 2014,-208 79,-208"/>
</g>
<!-- ActionTrackerWidgetComponent -->
<g id="node1" class="node">
<title>ActionTrackerWidgetComponent</title>
<polygon fill="#ffffb3" stroke="#000000" points="2068.1629,-122 1863.8371,-122 1863.8371,-86 2068.1629,-86 2068.1629,-122"/>
<text text-anchor="middle" x="1966" y="-99.8" font-family="Times,serif" font-size="14.00" fill="#000000">ActionTrackerWidgetComponent</text>
</g>
<!-- ActionTrackerTableModule -->
<g id="node12" class="node">
<title>ActionTrackerTableModule</title>
<polygon fill="#8dd3c7" stroke="#000000" points="1183.5422,-187 1180.5422,-191 1159.5422,-191 1156.5422,-187 1010.4578,-187 1010.4578,-151 1183.5422,-151 1183.5422,-187"/>
<text text-anchor="middle" x="1097" y="-164.8" font-family="Times,serif" font-size="14.00" fill="#000000">ActionTrackerTableModule</text>
</g>
<!-- ActionTrackerWidgetComponent&#45;&gt;ActionTrackerTableModule -->
<g id="edge1" class="edge">
<title>ActionTrackerWidgetComponent&#45;&gt;ActionTrackerTableModule</title>
<path fill="none" stroke="#000000" d="M1934.875,-122.1061C1934.875,-141.3391 1934.875,-169 1934.875,-169 1934.875,-169 1193.9035,-169 1193.9035,-169"/>
<polygon fill="#000000" stroke="#000000" points="1193.9035,-165.5001 1183.9035,-169 1193.9034,-172.5001 1193.9035,-165.5001"/>
</g>
<!-- AutoFilledInputComponent -->
<g id="node2" class="node">
<title>AutoFilledInputComponent</title>
<polygon fill="#ffffb3" stroke="#000000" points="1845.5504,-122 1674.4496,-122 1674.4496,-86 1845.5504,-86 1845.5504,-122"/>
<text text-anchor="middle" x="1760" y="-99.8" font-family="Times,serif" font-size="14.00" fill="#000000">AutoFilledInputComponent</text>
</g>
<!-- AutoFilledInputComponent&#45;&gt;ActionTrackerTableModule -->
<g id="edge2" class="edge">
<title>AutoFilledInputComponent&#45;&gt;ActionTrackerTableModule</title>
<path fill="none" stroke="#000000" d="M1727.375,-122.2667C1727.375,-140.5552 1727.375,-166 1727.375,-166 1727.375,-166 1193.6589,-166 1193.6589,-166"/>
<polygon fill="#000000" stroke="#000000" points="1193.6589,-162.5001 1183.6589,-166 1193.6589,-169.5001 1193.6589,-162.5001"/>
</g>
<!-- ClickOutsideDirective -->
<g id="node3" class="node">
<title>ClickOutsideDirective</title>
<polygon fill="#ffffb3" stroke="#000000" points="1655.9622,-122 1514.0378,-122 1514.0378,-86 1655.9622,-86 1655.9622,-122"/>
<text text-anchor="middle" x="1585" y="-99.8" font-family="Times,serif" font-size="14.00" fill="#000000">ClickOutsideDirective</text>
</g>
<!-- ClickOutsideDirective&#45;&gt;ActionTrackerTableModule -->
<g id="edge3" class="edge">
<title>ClickOutsideDirective&#45;&gt;ActionTrackerTableModule</title>
<path fill="none" stroke="#000000" d="M1550.801,-122.0336C1550.801,-139.0597 1550.801,-162 1550.801,-162 1550.801,-162 1193.6924,-162 1193.6924,-162"/>
<polygon fill="#000000" stroke="#000000" points="1193.6924,-158.5001 1183.6924,-162 1193.6924,-165.5001 1193.6924,-158.5001"/>
</g>
<!-- FormComponent -->
<g id="node4" class="node">
<title>FormComponent</title>
<polygon fill="#ffffb3" stroke="#000000" points="1495.6667,-122 1384.3333,-122 1384.3333,-86 1495.6667,-86 1495.6667,-122"/>
<text text-anchor="middle" x="1440" y="-99.8" font-family="Times,serif" font-size="14.00" fill="#000000">FormComponent</text>
</g>
<!-- FormComponent&#45;&gt;ActionTrackerTableModule -->
<g id="edge4" class="edge">
<title>FormComponent&#45;&gt;ActionTrackerTableModule</title>
<path fill="none" stroke="#000000" d="M1419.1769,-122.0091C1419.1769,-138.0494 1419.1769,-159 1419.1769,-159 1419.1769,-159 1193.7613,-159 1193.7613,-159"/>
<polygon fill="#000000" stroke="#000000" points="1193.7613,-155.5001 1183.7613,-159 1193.7613,-162.5001 1193.7613,-155.5001"/>
</g>
<!-- FormInputItemComponent -->
<g id="node5" class="node">
<title>FormInputItemComponent</title>
<polygon fill="#ffffb3" stroke="#000000" points="1366.3738,-122 1199.6262,-122 1199.6262,-86 1366.3738,-86 1366.3738,-122"/>
<text text-anchor="middle" x="1283" y="-99.8" font-family="Times,serif" font-size="14.00" fill="#000000">FormInputItemComponent</text>
</g>
<!-- FormInputItemComponent&#45;&gt;ActionTrackerTableModule -->
<g id="edge5" class="edge">
<title>FormInputItemComponent&#45;&gt;ActionTrackerTableModule</title>
<path fill="none" stroke="#000000" d="M1232.7635,-122.1243C1232.7635,-136.7832 1232.7635,-155 1232.7635,-155 1232.7635,-155 1193.7498,-155 1193.7498,-155"/>
<polygon fill="#000000" stroke="#000000" points="1193.7498,-151.5001 1183.7498,-155 1193.7497,-158.5001 1193.7498,-151.5001"/>
</g>
<!-- SelectBoxInputComponent -->
<g id="node6" class="node">
<title>SelectBoxInputComponent</title>
<polygon fill="#ffffb3" stroke="#000000" points="1181.4283,-122 1012.5717,-122 1012.5717,-86 1181.4283,-86 1181.4283,-122"/>
<text text-anchor="middle" x="1097" y="-99.8" font-family="Times,serif" font-size="14.00" fill="#000000">SelectBoxInputComponent</text>
</g>
<!-- SelectBoxInputComponent&#45;&gt;ActionTrackerTableModule -->
<g id="edge6" class="edge">
<title>SelectBoxInputComponent&#45;&gt;ActionTrackerTableModule</title>
<path fill="none" stroke="#000000" d="M1097,-122.1061C1097,-122.1061 1097,-140.991 1097,-140.991"/>
<polygon fill="#000000" stroke="#000000" points="1093.5001,-140.9909 1097,-150.991 1100.5001,-140.991 1093.5001,-140.9909"/>
</g>
<!-- TextAreaInputComponent -->
<g id="node7" class="node">
<title>TextAreaInputComponent</title>
<polygon fill="#ffffb3" stroke="#000000" points="994.738,-122 831.262,-122 831.262,-86 994.738,-86 994.738,-122"/>
<text text-anchor="middle" x="913" y="-99.8" font-family="Times,serif" font-size="14.00" fill="#000000">TextAreaInputComponent</text>
</g>
<!-- TextAreaInputComponent&#45;&gt;ActionTrackerTableModule -->
<g id="edge7" class="edge">
<title>TextAreaInputComponent&#45;&gt;ActionTrackerTableModule</title>
<path fill="none" stroke="#000000" d="M951.625,-122.1243C951.625,-136.7832 951.625,-155 951.625,-155 951.625,-155 1000.3355,-155 1000.3355,-155"/>
<polygon fill="#000000" stroke="#000000" points="1000.3356,-158.5001 1010.3355,-155 1000.3355,-151.5001 1000.3356,-158.5001"/>
</g>
<!-- TextViewComponent -->
<g id="node8" class="node">
<title>TextViewComponent</title>
<polygon fill="#ffffb3" stroke="#000000" points="812.8089,-122 675.1911,-122 675.1911,-86 812.8089,-86 812.8089,-122"/>
<text text-anchor="middle" x="744" y="-99.8" font-family="Times,serif" font-size="14.00" fill="#000000">TextViewComponent</text>
</g>
<!-- TextViewComponent&#45;&gt;ActionTrackerTableModule -->
<g id="edge8" class="edge">
<title>TextViewComponent&#45;&gt;ActionTrackerTableModule</title>
<path fill="none" stroke="#000000" d="M781.125,-122.0091C781.125,-138.0494 781.125,-159 781.125,-159 781.125,-159 1000.268,-159 1000.268,-159"/>
<polygon fill="#000000" stroke="#000000" points="1000.268,-162.5001 1010.268,-159 1000.2679,-155.5001 1000.268,-162.5001"/>
</g>
<!-- WidgetContextMenuComponent -->
<g id="node9" class="node">
<title>WidgetContextMenuComponent</title>
<polygon fill="#ffffb3" stroke="#000000" points="657.5349,-122 458.4651,-122 458.4651,-86 657.5349,-86 657.5349,-122"/>
<text text-anchor="middle" x="558" y="-99.8" font-family="Times,serif" font-size="14.00" fill="#000000">WidgetContextMenuComponent</text>
</g>
<!-- WidgetContextMenuComponent&#45;&gt;ActionTrackerTableModule -->
<g id="edge9" class="edge">
<title>WidgetContextMenuComponent&#45;&gt;ActionTrackerTableModule</title>
<path fill="none" stroke="#000000" d="M593.125,-122.0336C593.125,-139.0597 593.125,-162 593.125,-162 593.125,-162 1000.3808,-162 1000.3808,-162"/>
<polygon fill="#000000" stroke="#000000" points="1000.3808,-165.5001 1010.3808,-162 1000.3808,-158.5001 1000.3808,-165.5001"/>
</g>
<!-- WidgetItemLoaderComponent -->
<g id="node10" class="node">
<title>WidgetItemLoaderComponent</title>
<polygon fill="#ffffb3" stroke="#000000" points="439.8417,-122 252.1583,-122 252.1583,-86 439.8417,-86 439.8417,-122"/>
<text text-anchor="middle" x="346" y="-99.8" font-family="Times,serif" font-size="14.00" fill="#000000">WidgetItemLoaderComponent</text>
</g>
<!-- WidgetItemLoaderComponent&#45;&gt;ActionTrackerTableModule -->
<g id="edge10" class="edge">
<title>WidgetItemLoaderComponent&#45;&gt;ActionTrackerTableModule</title>
<path fill="none" stroke="#000000" d="M379.625,-122.2667C379.625,-140.5552 379.625,-166 379.625,-166 379.625,-166 1000.4678,-166 1000.4678,-166"/>
<polygon fill="#000000" stroke="#000000" points="1000.4678,-169.5001 1010.4678,-166 1000.4678,-162.5001 1000.4678,-169.5001"/>
</g>
<!-- WidgetNotificationBarComponent -->
<g id="node11" class="node">
<title>WidgetNotificationBarComponent</title>
<polygon fill="#ffffb3" stroke="#000000" points="234.4044,-122 23.5956,-122 23.5956,-86 234.4044,-86 234.4044,-122"/>
<text text-anchor="middle" x="129" y="-99.8" font-family="Times,serif" font-size="14.00" fill="#000000">WidgetNotificationBarComponent</text>
</g>
<!-- WidgetNotificationBarComponent&#45;&gt;ActionTrackerTableModule -->
<g id="edge11" class="edge">
<title>WidgetNotificationBarComponent&#45;&gt;ActionTrackerTableModule</title>
<path fill="none" stroke="#000000" d="M160.625,-122.1061C160.625,-141.3391 160.625,-169 160.625,-169 160.625,-169 1000.1681,-169 1000.1681,-169"/>
<polygon fill="#000000" stroke="#000000" points="1000.1682,-172.5001 1010.1681,-169 1000.1681,-165.5001 1000.1682,-172.5001"/>
</g>
<!-- ActionTrackerWidgetComponent  -->
<g id="node13" class="node">
<title>ActionTrackerWidgetComponent </title>
<polygon fill="#fb8072" stroke="#000000" points="2005.6631,-252 1798.3369,-252 1798.3369,-216 2005.6631,-216 2005.6631,-252"/>
<text text-anchor="middle" x="1902" y="-229.8" font-family="Times,serif" font-size="14.00" fill="#000000">ActionTrackerWidgetComponent </text>
</g>
<!-- ActionTrackerTableModule&#45;&gt;ActionTrackerWidgetComponent  -->
<g id="edge12" class="edge">
<title>ActionTrackerTableModule&#45;&gt;ActionTrackerWidgetComponent </title>
<path fill="none" stroke="#000000" stroke-dasharray="5,2" d="M1183.7284,-173C1376.1592,-173 1821.9718,-173 1821.9718,-173 1821.9718,-173 1821.9718,-205.698 1821.9718,-205.698"/>
<polygon fill="#000000" stroke="#000000" points="1818.4718,-205.698 1821.9718,-215.698 1825.4718,-205.698 1818.4718,-205.698"/>
</g>
<!-- AutoFilledInputComponent  -->
<g id="node14" class="node">
<title>AutoFilledInputComponent </title>
<polygon fill="#fb8072" stroke="#000000" points="1780.5498,-252 1605.4502,-252 1605.4502,-216 1780.5498,-216 1780.5498,-252"/>
<text text-anchor="middle" x="1693" y="-229.8" font-family="Times,serif" font-size="14.00" fill="#000000">AutoFilledInputComponent </text>
</g>
<!-- ActionTrackerTableModule&#45;&gt;AutoFilledInputComponent  -->
<g id="edge13" class="edge">
<title>ActionTrackerTableModule&#45;&gt;AutoFilledInputComponent </title>
<path fill="none" stroke="#000000" stroke-dasharray="5,2" d="M1183.643,-177C1334.7907,-177 1630.7281,-177 1630.7281,-177 1630.7281,-177 1630.7281,-205.9648 1630.7281,-205.9648"/>
<polygon fill="#000000" stroke="#000000" points="1627.2282,-205.9648 1630.7281,-215.9648 1634.2282,-205.9649 1627.2282,-205.9648"/>
</g>
<!-- FormComponent  -->
<g id="node15" class="node">
<title>FormComponent </title>
<polygon fill="#fb8072" stroke="#000000" points="1587.6663,-252 1472.3337,-252 1472.3337,-216 1587.6663,-216 1587.6663,-252"/>
<text text-anchor="middle" x="1530" y="-229.8" font-family="Times,serif" font-size="14.00" fill="#000000">FormComponent </text>
</g>
<!-- ActionTrackerTableModule&#45;&gt;FormComponent  -->
<g id="edge14" class="edge">
<title>ActionTrackerTableModule&#45;&gt;FormComponent </title>
<path fill="none" stroke="#000000" stroke-dasharray="5,2" d="M1183.8784,-180C1298.0157,-180 1484.125,-180 1484.125,-180 1484.125,-180 1484.125,-205.7181 1484.125,-205.7181"/>
<polygon fill="#000000" stroke="#000000" points="1480.6251,-205.718 1484.125,-215.7181 1487.6251,-205.7181 1480.6251,-205.718"/>
</g>
<!-- FormInputItemComponent  -->
<g id="node16" class="node">
<title>FormInputItemComponent </title>
<polygon fill="#fb8072" stroke="#000000" points="1454.3742,-252 1283.6258,-252 1283.6258,-216 1454.3742,-216 1454.3742,-252"/>
<text text-anchor="middle" x="1369" y="-229.8" font-family="Times,serif" font-size="14.00" fill="#000000">FormInputItemComponent </text>
</g>
<!-- ActionTrackerTableModule&#45;&gt;FormInputItemComponent  -->
<g id="edge15" class="edge">
<title>ActionTrackerTableModule&#45;&gt;FormInputItemComponent </title>
<path fill="none" stroke="#000000" stroke-dasharray="5,2" d="M1183.5696,-184C1248.1044,-184 1325.125,-184 1325.125,-184 1325.125,-184 1325.125,-205.9489 1325.125,-205.9489"/>
<polygon fill="#000000" stroke="#000000" points="1321.6251,-205.9488 1325.125,-215.9489 1328.6251,-205.9489 1321.6251,-205.9488"/>
</g>
<!-- SelectBoxInputComponent  -->
<g id="node17" class="node">
<title>SelectBoxInputComponent </title>
<polygon fill="#fb8072" stroke="#000000" points="1265.9278,-252 1094.0722,-252 1094.0722,-216 1265.9278,-216 1265.9278,-252"/>
<text text-anchor="middle" x="1180" y="-229.8" font-family="Times,serif" font-size="14.00" fill="#000000">SelectBoxInputComponent </text>
</g>
<!-- ActionTrackerTableModule&#45;&gt;SelectBoxInputComponent  -->
<g id="edge16" class="edge">
<title>ActionTrackerTableModule&#45;&gt;SelectBoxInputComponent </title>
<path fill="none" stroke="#000000" stroke-dasharray="5,2" d="M1138.7786,-187.1061C1138.7786,-187.1061 1138.7786,-205.991 1138.7786,-205.991"/>
<polygon fill="#000000" stroke="#000000" points="1135.2787,-205.9909 1138.7786,-215.991 1142.2787,-205.991 1135.2787,-205.9909"/>
</g>
<!-- TextAreaInputComponent  -->
<g id="node18" class="node">
<title>TextAreaInputComponent </title>
<polygon fill="#fb8072" stroke="#000000" points="1075.738,-252 908.262,-252 908.262,-216 1075.738,-216 1075.738,-252"/>
<text text-anchor="middle" x="992" y="-229.8" font-family="Times,serif" font-size="14.00" fill="#000000">TextAreaInputComponent </text>
</g>
<!-- ActionTrackerTableModule&#45;&gt;TextAreaInputComponent  -->
<g id="edge17" class="edge">
<title>ActionTrackerTableModule&#45;&gt;TextAreaInputComponent </title>
<path fill="none" stroke="#000000" stroke-dasharray="5,2" d="M1043.0489,-187.1061C1043.0489,-187.1061 1043.0489,-205.991 1043.0489,-205.991"/>
<polygon fill="#000000" stroke="#000000" points="1039.549,-205.9909 1043.0489,-215.991 1046.549,-205.991 1039.549,-205.9909"/>
</g>
<!-- TextViewComponent  -->
<g id="node19" class="node">
<title>TextViewComponent </title>
<polygon fill="#fb8072" stroke="#000000" points="890.3087,-252 749.6913,-252 749.6913,-216 890.3087,-216 890.3087,-252"/>
<text text-anchor="middle" x="820" y="-229.8" font-family="Times,serif" font-size="14.00" fill="#000000">TextViewComponent </text>
</g>
<!-- ActionTrackerTableModule&#45;&gt;TextViewComponent  -->
<g id="edge18" class="edge">
<title>ActionTrackerTableModule&#45;&gt;TextViewComponent </title>
<path fill="none" stroke="#000000" stroke-dasharray="5,2" d="M1010.3772,-184C942.9566,-184 860.7677,-184 860.7677,-184 860.7677,-184 860.7677,-205.9489 860.7677,-205.9489"/>
<polygon fill="#000000" stroke="#000000" points="857.2678,-205.9488 860.7677,-215.9489 864.2678,-205.9489 857.2678,-205.9488"/>
</g>
<!-- WidgetContextMenuComponent  -->
<g id="node20" class="node">
<title>WidgetContextMenuComponent </title>
<polygon fill="#fb8072" stroke="#000000" points="731.5344,-252 528.4656,-252 528.4656,-216 731.5344,-216 731.5344,-252"/>
<text text-anchor="middle" x="630" y="-229.8" font-family="Times,serif" font-size="14.00" fill="#000000">WidgetContextMenuComponent </text>
</g>
<!-- ActionTrackerTableModule&#45;&gt;WidgetContextMenuComponent  -->
<g id="edge19" class="edge">
<title>ActionTrackerTableModule&#45;&gt;WidgetContextMenuComponent </title>
<path fill="none" stroke="#000000" stroke-dasharray="5,2" d="M1010.1425,-180C894.2407,-180 703.4315,-180 703.4315,-180 703.4315,-180 703.4315,-205.7181 703.4315,-205.7181"/>
<polygon fill="#000000" stroke="#000000" points="699.9315,-205.718 703.4315,-215.7181 706.9315,-205.7181 699.9315,-205.718"/>
</g>
<!-- WidgetItemLoaderComponent  -->
<g id="node21" class="node">
<title>WidgetItemLoaderComponent </title>
<polygon fill="#fb8072" stroke="#000000" points="510.8419,-252 319.1581,-252 319.1581,-216 510.8419,-216 510.8419,-252"/>
<text text-anchor="middle" x="415" y="-229.8" font-family="Times,serif" font-size="14.00" fill="#000000">WidgetItemLoaderComponent </text>
</g>
<!-- ActionTrackerTableModule&#45;&gt;WidgetItemLoaderComponent  -->
<g id="edge20" class="edge">
<title>ActionTrackerTableModule&#45;&gt;WidgetItemLoaderComponent </title>
<path fill="none" stroke="#000000" stroke-dasharray="5,2" d="M1010.2119,-177C841.23,-177 484.4518,-177 484.4518,-177 484.4518,-177 484.4518,-205.9648 484.4518,-205.9648"/>
<polygon fill="#000000" stroke="#000000" points="480.9519,-205.9648 484.4518,-215.9648 487.9519,-205.9649 480.9519,-205.9648"/>
</g>
<!-- WidgetNotificationBarComponent  -->
<g id="node22" class="node">
<title>WidgetNotificationBarComponent </title>
<polygon fill="#fb8072" stroke="#000000" points="300.904,-252 87.096,-252 87.096,-216 300.904,-216 300.904,-252"/>
<text text-anchor="middle" x="194" y="-229.8" font-family="Times,serif" font-size="14.00" fill="#000000">WidgetNotificationBarComponent </text>
</g>
<!-- ActionTrackerTableModule&#45;&gt;WidgetNotificationBarComponent  -->
<g id="edge21" class="edge">
<title>ActionTrackerTableModule&#45;&gt;WidgetNotificationBarComponent </title>
<path fill="none" stroke="#000000" stroke-dasharray="5,2" d="M1010.3579,-173C799.4485,-173 276.5156,-173 276.5156,-173 276.5156,-173 276.5156,-205.698 276.5156,-205.698"/>
<polygon fill="#000000" stroke="#000000" points="273.0155,-205.698 276.5156,-215.698 280.0155,-205.698 273.0155,-205.698"/>
</g>
</g>
</svg>
