<?xml version="1.0" encoding="UTF-8" standalone="no"?>
<!DOCTYPE svg PUBLIC "-//W3C//DTD SVG 1.1//EN"
 "http://www.w3.org/Graphics/SVG/1.1/DTD/svg11.dtd">
<!-- Generated by graphviz version 2.40.1 (20161225.0304)
 -->
<!-- Title: dependencies Pages: 1 -->
<svg width="2100pt" height="284pt"
 viewBox="0.00 0.00 2100.00 284.00" xmlns="http://www.w3.org/2000/svg" xmlns:xlink="http://www.w3.org/1999/xlink">
<g id="graph0" class="graph" transform="scale(1 1) rotate(0) translate(4 280)">
<title>dependencies</title>
<polygon fill="#ffffff" stroke="transparent" points="-4,4 -4,-280 2096,-280 2096,4 -4,4"/>
<text text-anchor="start" x="1025.0091" y="-42.4" font-family="sans-serif" font-weight="bold" font-size="14.00" fill="#000000">Legend</text>
<polygon fill="#ffffb3" stroke="transparent" points="812,-10 812,-30 832,-30 832,-10 812,-10"/>
<text text-anchor="start" x="835.629" y="-15.4" font-family="sans-serif" font-size="14.00" fill="#000000"> &#160;Declarations</text>
<polygon fill="#8dd3c7" stroke="transparent" points="925,-10 925,-30 945,-30 945,-10 925,-10"/>
<text text-anchor="start" x="948.7251" y="-15.4" font-family="sans-serif" font-size="14.00" fill="#000000"> &#160;Module</text>
<polygon fill="#80b1d3" stroke="transparent" points="1011,-10 1011,-30 1031,-30 1031,-10 1011,-10"/>
<text text-anchor="start" x="1034.7812" y="-15.4" font-family="sans-serif" font-size="14.00" fill="#000000"> &#160;Bootstrap</text>
<polygon fill="#fdb462" stroke="transparent" points="1108,-10 1108,-30 1128,-30 1128,-10 1108,-10"/>
<text text-anchor="start" x="1131.6732" y="-15.4" font-family="sans-serif" font-size="14.00" fill="#000000"> &#160;Providers</text>
<polygon fill="#fb8072" stroke="transparent" points="1204,-10 1204,-30 1224,-30 1224,-10 1204,-10"/>
<text text-anchor="start" x="1227.7258" y="-15.4" font-family="sans-serif" font-size="14.00" fill="#000000"> &#160;Exports</text>
<g id="clust1" class="cluster">
<title>cluster_ActionTrackerTableModule</title>
<polygon fill="none" stroke="#000000" stroke-dasharray="1,5" points="8,-70 8,-268 2084,-268 2084,-70 8,-70"/>
</g>
<g id="clust2" class="cluster">
<title>cluster_ActionTrackerTableModule_declarations</title>
<polygon fill="none" stroke="#000000" points="16,-78 16,-130 2076,-130 2076,-78 16,-78"/>
</g>
<g id="clust15" class="cluster">
<title>cluster_ActionTrackerTableModule_exports</title>
<polygon fill="none" stroke="#000000" points="985,-208 985,-260 1209,-260 1209,-208 985,-208"/>
</g>
<!-- ActionTrackerWidgetComponent -->
<g id="node1" class="node">
<title>ActionTrackerWidgetComponent</title>
<polygon fill="#ffffb3" stroke="#000000" points="2068.1629,-122 1863.8371,-122 1863.8371,-86 2068.1629,-86 2068.1629,-122"/>
<text text-anchor="middle" x="1966" y="-99.8" font-family="Times,serif" font-size="14.00" fill="#000000">ActionTrackerWidgetComponent</text>
</g>
<!-- ActionTrackerTableModule -->
<g id="node12" class="node">
<title>ActionTrackerTableModule</title>
<polygon fill="#8dd3c7" stroke="#000000" points="1183.5422,-187 1180.5422,-191 1159.5422,-191 1156.5422,-187 1010.4578,-187 1010.4578,-151 1183.5422,-151 1183.5422,-187"/>
<text text-anchor="middle" x="1097" y="-164.8" font-family="Times,serif" font-size="14.00" fill="#000000">ActionTrackerTableModule</text>
</g>
<!-- ActionTrackerWidgetComponent&#45;&gt;ActionTrackerTableModule -->
<g id="edge1" class="edge">
<title>ActionTrackerWidgetComponent&#45;&gt;ActionTrackerTableModule</title>
<path fill="none" stroke="#000000" d="M1966,-122.2479C1966,-145.0179 1966,-181 1966,-181 1966,-181 1193.9006,-181 1193.9006,-181"/>
<polygon fill="#000000" stroke="#000000" points="1193.9006,-177.5001 1183.9006,-181 1193.9005,-184.5001 1193.9006,-177.5001"/>
</g>
<!-- AutoFilledInputComponent -->
<g id="node2" class="node">
<title>AutoFilledInputComponent</title>
<polygon fill="#ffffb3" stroke="#000000" points="1845.5504,-122 1674.4496,-122 1674.4496,-86 1845.5504,-86 1845.5504,-122"/>
<text text-anchor="middle" x="1760" y="-99.8" font-family="Times,serif" font-size="14.00" fill="#000000">AutoFilledInputComponent</text>
</g>
<!-- AutoFilledInputComponent&#45;&gt;ActionTrackerTableModule -->
<g id="edge2" class="edge">
<title>AutoFilledInputComponent&#45;&gt;ActionTrackerTableModule</title>
<path fill="none" stroke="#000000" d="M1760,-122.2843C1760,-143.3211 1760,-175 1760,-175 1760,-175 1193.6757,-175 1193.6757,-175"/>
<polygon fill="#000000" stroke="#000000" points="1193.6757,-171.5001 1183.6757,-175 1193.6756,-178.5001 1193.6757,-171.5001"/>
</g>
<!-- ClickOutsideDirective -->
<g id="node3" class="node">
<title>ClickOutsideDirective</title>
<polygon fill="#ffffb3" stroke="#000000" points="1655.9622,-122 1514.0378,-122 1514.0378,-86 1655.9622,-86 1655.9622,-122"/>
<text text-anchor="middle" x="1585" y="-99.8" font-family="Times,serif" font-size="14.00" fill="#000000">ClickOutsideDirective</text>
</g>
<!-- ClickOutsideDirective&#45;&gt;ActionTrackerTableModule -->
<g id="edge3" class="edge">
<title>ClickOutsideDirective&#45;&gt;ActionTrackerTableModule</title>
<path fill="none" stroke="#000000" d="M1585,-122.1061C1585,-141.3391 1585,-169 1585,-169 1585,-169 1193.6823,-169 1193.6823,-169"/>
<polygon fill="#000000" stroke="#000000" points="1193.6823,-165.5001 1183.6823,-169 1193.6823,-172.5001 1193.6823,-165.5001"/>
</g>
<!-- FormComponent -->
<g id="node4" class="node">
<title>FormComponent</title>
<polygon fill="#ffffb3" stroke="#000000" points="1495.6667,-122 1384.3333,-122 1384.3333,-86 1495.6667,-86 1495.6667,-122"/>
<text text-anchor="middle" x="1440" y="-99.8" font-family="Times,serif" font-size="14.00" fill="#000000">FormComponent</text>
</g>
<!-- FormComponent&#45;&gt;ActionTrackerTableModule -->
<g id="edge4" class="edge">
<title>FormComponent&#45;&gt;ActionTrackerTableModule</title>
<path fill="none" stroke="#000000" d="M1440,-122.0225C1440,-139.3734 1440,-163 1440,-163 1440,-163 1193.5534,-163 1193.5534,-163"/>
<polygon fill="#000000" stroke="#000000" points="1193.5534,-159.5001 1183.5534,-163 1193.5533,-166.5001 1193.5534,-159.5001"/>
</g>
<!-- FormInputItemComponent -->
<g id="node5" class="node">
<title>FormInputItemComponent</title>
<polygon fill="#ffffb3" stroke="#000000" points="1366.3738,-122 1199.6262,-122 1199.6262,-86 1366.3738,-86 1366.3738,-122"/>
<text text-anchor="middle" x="1283" y="-99.8" font-family="Times,serif" font-size="14.00" fill="#000000">FormInputItemComponent</text>
</g>
<!-- FormInputItemComponent&#45;&gt;ActionTrackerTableModule -->
<g id="edge5" class="edge">
<title>FormInputItemComponent&#45;&gt;ActionTrackerTableModule</title>
<path fill="none" stroke="#000000" d="M1283.6341,-122.2396C1283.6341,-137.5706 1283.6341,-157 1283.6341,-157 1283.6341,-157 1193.7605,-157 1193.7605,-157"/>
<polygon fill="#000000" stroke="#000000" points="1193.7606,-153.5001 1183.7605,-157 1193.7605,-160.5001 1193.7606,-153.5001"/>
</g>
<!-- SelectBoxInputComponent -->
<g id="node6" class="node">
<title>SelectBoxInputComponent</title>
<polygon fill="#ffffb3" stroke="#000000" points="1181.4283,-122 1012.5717,-122 1012.5717,-86 1181.4283,-86 1181.4283,-122"/>
<text text-anchor="middle" x="1097" y="-99.8" font-family="Times,serif" font-size="14.00" fill="#000000">SelectBoxInputComponent</text>
</g>
<!-- SelectBoxInputComponent&#45;&gt;ActionTrackerTableModule -->
<g id="edge6" class="edge">
<title>SelectBoxInputComponent&#45;&gt;ActionTrackerTableModule</title>
<path fill="none" stroke="#000000" d="M1097,-122.1061C1097,-122.1061 1097,-140.991 1097,-140.991"/>
<polygon fill="#000000" stroke="#000000" points="1093.5001,-140.9909 1097,-150.991 1100.5001,-140.991 1093.5001,-140.9909"/>
</g>
<!-- TextAreaInputComponent -->
<g id="node7" class="node">
<title>TextAreaInputComponent</title>
<polygon fill="#ffffb3" stroke="#000000" points="994.738,-122 831.262,-122 831.262,-86 994.738,-86 994.738,-122"/>
<text text-anchor="middle" x="913" y="-99.8" font-family="Times,serif" font-size="14.00" fill="#000000">TextAreaInputComponent</text>
</g>
<!-- TextAreaInputComponent&#45;&gt;ActionTrackerTableModule -->
<g id="edge7" class="edge">
<title>TextAreaInputComponent&#45;&gt;ActionTrackerTableModule</title>
<path fill="none" stroke="#000000" d="M912.1499,-122.2396C912.1499,-137.5706 912.1499,-157 912.1499,-157 912.1499,-157 1000.258,-157 1000.258,-157"/>
<polygon fill="#000000" stroke="#000000" points="1000.2581,-160.5001 1010.258,-157 1000.258,-153.5001 1000.2581,-160.5001"/>
</g>
<!-- TextViewComponent -->
<g id="node8" class="node">
<title>TextViewComponent</title>
<polygon fill="#ffffb3" stroke="#000000" points="812.8089,-122 675.1911,-122 675.1911,-86 812.8089,-86 812.8089,-122"/>
<text text-anchor="middle" x="744" y="-99.8" font-family="Times,serif" font-size="14.00" fill="#000000">TextViewComponent</text>
</g>
<!-- TextViewComponent&#45;&gt;ActionTrackerTableModule -->
<g id="edge8" class="edge">
<title>TextViewComponent&#45;&gt;ActionTrackerTableModule</title>
<path fill="none" stroke="#000000" d="M744,-122.0225C744,-139.3734 744,-163 744,-163 744,-163 1000.1944,-163 1000.1944,-163"/>
<polygon fill="#000000" stroke="#000000" points="1000.1944,-166.5001 1010.1944,-163 1000.1943,-159.5001 1000.1944,-166.5001"/>
</g>
<!-- WidgetContextMenuComponent -->
<g id="node9" class="node">
<title>WidgetContextMenuComponent</title>
<polygon fill="#ffffb3" stroke="#000000" points="657.5349,-122 458.4651,-122 458.4651,-86 657.5349,-86 657.5349,-122"/>
<text text-anchor="middle" x="558" y="-99.8" font-family="Times,serif" font-size="14.00" fill="#000000">WidgetContextMenuComponent</text>
</g>
<!-- WidgetContextMenuComponent&#45;&gt;ActionTrackerTableModule -->
<g id="edge9" class="edge">
<title>WidgetContextMenuComponent&#45;&gt;ActionTrackerTableModule</title>
<path fill="none" stroke="#000000" d="M558,-122.1061C558,-141.3391 558,-169 558,-169 558,-169 1000.4003,-169 1000.4003,-169"/>
<polygon fill="#000000" stroke="#000000" points="1000.4004,-172.5001 1010.4003,-169 1000.4003,-165.5001 1000.4004,-172.5001"/>
</g>
<!-- WidgetItemLoaderComponent -->
<g id="node10" class="node">
<title>WidgetItemLoaderComponent</title>
<polygon fill="#ffffb3" stroke="#000000" points="439.8417,-122 252.1583,-122 252.1583,-86 439.8417,-86 439.8417,-122"/>
<text text-anchor="middle" x="346" y="-99.8" font-family="Times,serif" font-size="14.00" fill="#000000">WidgetItemLoaderComponent</text>
</g>
<!-- WidgetItemLoaderComponent&#45;&gt;ActionTrackerTableModule -->
<g id="edge10" class="edge">
<title>WidgetItemLoaderComponent&#45;&gt;ActionTrackerTableModule</title>
<path fill="none" stroke="#000000" d="M346,-122.2843C346,-143.3211 346,-175 346,-175 346,-175 1000.1171,-175 1000.1171,-175"/>
<polygon fill="#000000" stroke="#000000" points="1000.1171,-178.5001 1010.1171,-175 1000.1171,-171.5001 1000.1171,-178.5001"/>
</g>
<!-- WidgetNotificationBarComponent -->
<g id="node11" class="node">
<title>WidgetNotificationBarComponent</title>
<polygon fill="#ffffb3" stroke="#000000" points="234.4044,-122 23.5956,-122 23.5956,-86 234.4044,-86 234.4044,-122"/>
<text text-anchor="middle" x="129" y="-99.8" font-family="Times,serif" font-size="14.00" fill="#000000">WidgetNotificationBarComponent</text>
</g>
<!-- WidgetNotificationBarComponent&#45;&gt;ActionTrackerTableModule -->
<g id="edge11" class="edge">
<title>WidgetNotificationBarComponent&#45;&gt;ActionTrackerTableModule</title>
<path fill="none" stroke="#000000" d="M129,-122.2479C129,-145.0179 129,-181 129,-181 129,-181 1000.2446,-181 1000.2446,-181"/>
<polygon fill="#000000" stroke="#000000" points="1000.2446,-184.5001 1010.2446,-181 1000.2445,-177.5001 1000.2446,-184.5001"/>
</g>
<!-- ActionTrackerWidgetComponent  -->
<g id="node13" class="node">
<title>ActionTrackerWidgetComponent </title>
<polygon fill="#fb8072" stroke="#000000" points="1200.6631,-252 993.3369,-252 993.3369,-216 1200.6631,-216 1200.6631,-252"/>
<text text-anchor="middle" x="1097" y="-229.8" font-family="Times,serif" font-size="14.00" fill="#000000">ActionTrackerWidgetComponent </text>
</g>
<!-- ActionTrackerTableModule&#45;&gt;ActionTrackerWidgetComponent  -->
<g id="edge12" class="edge">
<title>ActionTrackerTableModule&#45;&gt;ActionTrackerWidgetComponent </title>
<path fill="none" stroke="#000000" stroke-dasharray="5,2" d="M1097,-187.1061C1097,-187.1061 1097,-205.991 1097,-205.991"/>
<polygon fill="#000000" stroke="#000000" points="1093.5001,-205.9909 1097,-215.991 1100.5001,-205.991 1093.5001,-205.9909"/>
</g>
</g>
</svg>
