<?xml version="1.0" encoding="UTF-8" standalone="no"?>
<!DOCTYPE svg PUBLIC "-//W3C//DTD SVG 1.1//EN"
 "http://www.w3.org/Graphics/SVG/1.1/DTD/svg11.dtd">
<!-- Generated by graphviz version 2.40.1 (20161225.0304)
 -->
<!-- Title: dependencies Pages: 1 -->
<svg width="504pt" height="284pt"
 viewBox="0.00 0.00 504.00 284.00" xmlns="http://www.w3.org/2000/svg" xmlns:xlink="http://www.w3.org/1999/xlink">
<g id="graph0" class="graph" transform="scale(1 1) rotate(0) translate(4 280)">
<title>dependencies</title>
<polygon fill="#ffffff" stroke="transparent" points="-4,4 -4,-280 500,-280 500,4 -4,4"/>
<text text-anchor="start" x="227.0091" y="-42.4" font-family="sans-serif" font-weight="bold" font-size="14.00" fill="#000000">Legend</text>
<polygon fill="#ffffb3" stroke="transparent" points="14,-10 14,-30 34,-30 34,-10 14,-10"/>
<text text-anchor="start" x="37.629" y="-15.4" font-family="sans-serif" font-size="14.00" fill="#000000"> &#160;Declarations</text>
<polygon fill="#8dd3c7" stroke="transparent" points="127,-10 127,-30 147,-30 147,-10 127,-10"/>
<text text-anchor="start" x="150.7251" y="-15.4" font-family="sans-serif" font-size="14.00" fill="#000000"> &#160;Module</text>
<polygon fill="#80b1d3" stroke="transparent" points="213,-10 213,-30 233,-30 233,-10 213,-10"/>
<text text-anchor="start" x="236.7812" y="-15.4" font-family="sans-serif" font-size="14.00" fill="#000000"> &#160;Bootstrap</text>
<polygon fill="#fdb462" stroke="transparent" points="310,-10 310,-30 330,-30 330,-10 310,-10"/>
<text text-anchor="start" x="333.6732" y="-15.4" font-family="sans-serif" font-size="14.00" fill="#000000"> &#160;Providers</text>
<polygon fill="#fb8072" stroke="transparent" points="406,-10 406,-30 426,-30 426,-10 406,-10"/>
<text text-anchor="start" x="429.7258" y="-15.4" font-family="sans-serif" font-size="14.00" fill="#000000"> &#160;Exports</text>
<g id="clust1" class="cluster">
<title>cluster_InterventionFilterModule</title>
<polygon fill="none" stroke="#000000" stroke-dasharray="1,5" points="31,-70 31,-268 465,-268 465,-70 31,-70"/>
</g>
<g id="clust2" class="cluster">
<title>cluster_InterventionFilterModule_declarations</title>
<polygon fill="none" stroke="#000000" points="237,-78 237,-130 457,-130 457,-78 237,-78"/>
</g>
<g id="clust5" class="cluster">
<title>cluster_InterventionFilterModule_exports</title>
<polygon fill="none" stroke="#000000" points="136,-208 136,-260 360,-260 360,-208 136,-208"/>
</g>
<g id="clust7" class="cluster">
<title>cluster_InterventionFilterModule_providers</title>
<polygon fill="none" stroke="#000000" points="39,-78 39,-130 229,-130 229,-78 39,-78"/>
</g>
<!-- ActionTrackerWidgetComponent -->
<g id="node1" class="node">
<title>ActionTrackerWidgetComponent</title>
<polygon fill="#ffffb3" stroke="#000000" points="449.1629,-122 244.8371,-122 244.8371,-86 449.1629,-86 449.1629,-122"/>
<text text-anchor="middle" x="347" y="-99.8" font-family="Times,serif" font-size="14.00" fill="#000000">ActionTrackerWidgetComponent</text>
</g>
<!-- InterventionFilterModule -->
<g id="node2" class="node">
<title>InterventionFilterModule</title>
<polygon fill="#8dd3c7" stroke="#000000" points="327.3019,-187 324.3019,-191 303.3019,-191 300.3019,-187 168.6981,-187 168.6981,-151 327.3019,-151 327.3019,-187"/>
<text text-anchor="middle" x="248" y="-164.8" font-family="Times,serif" font-size="14.00" fill="#000000">InterventionFilterModule</text>
</g>
<!-- ActionTrackerWidgetComponent&#45;&gt;InterventionFilterModule -->
<g id="edge1" class="edge">
<title>ActionTrackerWidgetComponent&#45;&gt;InterventionFilterModule</title>
<path fill="none" stroke="#000000" d="M286.0347,-122.1061C286.0347,-122.1061 286.0347,-140.991 286.0347,-140.991"/>
<polygon fill="#000000" stroke="#000000" points="282.5348,-140.9909 286.0347,-150.991 289.5348,-140.991 282.5348,-140.9909"/>
</g>
<!-- ActionTrackerWidgetComponent  -->
<g id="node3" class="node">
<title>ActionTrackerWidgetComponent </title>
<polygon fill="#fb8072" stroke="#000000" points="351.6631,-252 144.3369,-252 144.3369,-216 351.6631,-216 351.6631,-252"/>
<text text-anchor="middle" x="248" y="-229.8" font-family="Times,serif" font-size="14.00" fill="#000000">ActionTrackerWidgetComponent </text>
</g>
<!-- InterventionFilterModule&#45;&gt;ActionTrackerWidgetComponent  -->
<g id="edge2" class="edge">
<title>InterventionFilterModule&#45;&gt;ActionTrackerWidgetComponent </title>
<path fill="none" stroke="#000000" stroke-dasharray="5,2" d="M248,-187.1061C248,-187.1061 248,-205.991 248,-205.991"/>
<polygon fill="#000000" stroke="#000000" points="244.5001,-205.9909 248,-215.991 251.5001,-205.991 244.5001,-205.9909"/>
</g>
<!-- InterventionService -->
<g id="node4" class="node">
<title>InterventionService</title>
<ellipse fill="#fdb462" stroke="#000000" cx="134" cy="-104" rx="87.377" ry="18"/>
<text text-anchor="middle" x="134" y="-99.8" font-family="Times,serif" font-size="14.00" fill="#000000">InterventionService</text>
</g>
<!-- InterventionService&#45;&gt;InterventionFilterModule -->
<g id="edge3" class="edge">
<title>InterventionService&#45;&gt;InterventionFilterModule</title>
<path fill="none" stroke="#000000" d="M195.0187,-117.1537C195.0187,-117.1537 195.0187,-140.6938 195.0187,-140.6938"/>
<polygon fill="#000000" stroke="#000000" points="191.5188,-140.6938 195.0187,-150.6938 198.5188,-140.6939 191.5188,-140.6938"/>
</g>
</g>
</svg>
