<?xml version="1.0" encoding="UTF-8" standalone="no"?>
<!DOCTYPE svg PUBLIC "-//W3C//DTD SVG 1.1//EN"
 "http://www.w3.org/Graphics/SVG/1.1/DTD/svg11.dtd">
<!-- Generated by graphviz version 2.40.1 (20161225.0304)
 -->
<!-- Title: dependencies Pages: 1 -->
<svg width="504pt" height="284pt"
 viewBox="0.00 0.00 504.00 284.00" xmlns="http://www.w3.org/2000/svg" xmlns:xlink="http://www.w3.org/1999/xlink">
<g id="graph0" class="graph" transform="scale(1 1) rotate(0) translate(4 280)">
<title>dependencies</title>
<polygon fill="#ffffff" stroke="transparent" points="-4,4 -4,-280 500,-280 500,4 -4,4"/>
<text text-anchor="start" x="227.0091" y="-42.4" font-family="sans-serif" font-weight="bold" font-size="14.00" fill="#000000">Legend</text>
<polygon fill="#ffffb3" stroke="transparent" points="14,-10 14,-30 34,-30 34,-10 14,-10"/>
<text text-anchor="start" x="37.629" y="-15.4" font-family="sans-serif" font-size="14.00" fill="#000000"> &#160;Declarations</text>
<polygon fill="#8dd3c7" stroke="transparent" points="127,-10 127,-30 147,-30 147,-10 127,-10"/>
<text text-anchor="start" x="150.7251" y="-15.4" font-family="sans-serif" font-size="14.00" fill="#000000"> &#160;Module</text>
<polygon fill="#80b1d3" stroke="transparent" points="213,-10 213,-30 233,-30 233,-10 213,-10"/>
<text text-anchor="start" x="236.7812" y="-15.4" font-family="sans-serif" font-size="14.00" fill="#000000"> &#160;Bootstrap</text>
<polygon fill="#fdb462" stroke="transparent" points="310,-10 310,-30 330,-30 330,-10 310,-10"/>
<text text-anchor="start" x="333.6732" y="-15.4" font-family="sans-serif" font-size="14.00" fill="#000000"> &#160;Providers</text>
<polygon fill="#fb8072" stroke="transparent" points="406,-10 406,-30 426,-30 426,-10 406,-10"/>
<text text-anchor="start" x="429.7258" y="-15.4" font-family="sans-serif" font-size="14.00" fill="#000000"> &#160;Exports</text>
<g id="clust1" class="cluster">
<title>cluster_CoreModule</title>
<polygon fill="none" stroke="#000000" stroke-dasharray="1,5" points="31,-70 31,-268 465,-268 465,-70 31,-70"/>
</g>
<g id="clust2" class="cluster">
<title>cluster_CoreModule_declarations</title>
<polygon fill="none" stroke="#000000" points="277,-78 277,-130 457,-130 457,-78 277,-78"/>
</g>
<g id="clust4" class="cluster">
<title>cluster_CoreModule_imports</title>
<polygon fill="none" stroke="#000000" points="39,-78 39,-130 269,-130 269,-78 39,-78"/>
</g>
<g id="clust5" class="cluster">
<title>cluster_CoreModule_exports</title>
<polygon fill="none" stroke="#000000" points="93,-208 93,-260 403,-260 403,-208 93,-208"/>
</g>
<!-- NavigationBarComponent -->
<g id="node1" class="node">
<title>NavigationBarComponent</title>
<polygon fill="#ffffb3" stroke="#000000" points="448.752,-122 285.248,-122 285.248,-86 448.752,-86 448.752,-122"/>
<text text-anchor="middle" x="367" y="-99.8" font-family="Times,serif" font-size="14.00" fill="#000000">NavigationBarComponent</text>
</g>
<!-- CoreModule -->
<g id="node2" class="node">
<title>CoreModule</title>
<polygon fill="#8dd3c7" stroke="#000000" points="258.2619,-187 255.2619,-191 234.2619,-191 231.2619,-187 171.7381,-187 171.7381,-151 258.2619,-151 258.2619,-187"/>
<text text-anchor="middle" x="215" y="-164.8" font-family="Times,serif" font-size="14.00" fill="#000000">CoreModule</text>
</g>
<!-- NavigationBarComponent&#45;&gt;CoreModule -->
<g id="edge1" class="edge">
<title>NavigationBarComponent&#45;&gt;CoreModule</title>
<path fill="none" stroke="#000000" d="M339.875,-122.1061C339.875,-141.3391 339.875,-169 339.875,-169 339.875,-169 268.3248,-169 268.3248,-169"/>
<polygon fill="#000000" stroke="#000000" points="268.3248,-165.5001 258.3248,-169 268.3247,-172.5001 268.3248,-165.5001"/>
</g>
<!-- NavigationBarComponent  -->
<g id="node5" class="node">
<title>NavigationBarComponent </title>
<polygon fill="#fb8072" stroke="#000000" points="394.752,-252 227.248,-252 227.248,-216 394.752,-216 394.752,-252"/>
<text text-anchor="middle" x="311" y="-229.8" font-family="Times,serif" font-size="14.00" fill="#000000">NavigationBarComponent </text>
</g>
<!-- CoreModule&#45;&gt;NavigationBarComponent  -->
<g id="edge4" class="edge">
<title>CoreModule&#45;&gt;NavigationBarComponent </title>
<path fill="none" stroke="#000000" stroke-dasharray="5,2" d="M242.8775,-187.1061C242.8775,-187.1061 242.8775,-205.991 242.8775,-205.991"/>
<polygon fill="#000000" stroke="#000000" points="239.3775,-205.9909 242.8775,-215.991 246.3775,-205.991 239.3775,-205.9909"/>
</g>
<!-- RoutingModule  -->
<g id="node6" class="node">
<title>RoutingModule </title>
<polygon fill="#fb8072" stroke="#000000" points="209.1677,-252 100.8323,-252 100.8323,-216 209.1677,-216 209.1677,-252"/>
<text text-anchor="middle" x="155" y="-229.8" font-family="Times,serif" font-size="14.00" fill="#000000">RoutingModule </text>
</g>
<!-- CoreModule&#45;&gt;RoutingModule  -->
<g id="edge5" class="edge">
<title>CoreModule&#45;&gt;RoutingModule </title>
<path fill="none" stroke="#000000" stroke-dasharray="5,2" d="M190.3515,-187.1061C190.3515,-187.1061 190.3515,-205.991 190.3515,-205.991"/>
<polygon fill="#000000" stroke="#000000" points="186.8516,-205.9909 190.3515,-215.991 193.8516,-205.991 186.8516,-205.9909"/>
</g>
<!-- !environment -->
<g id="node3" class="node">
<title>!environment</title>
<polygon fill="#8dd3c7" stroke="#000000" points="260.9232,-122 257.9232,-126 236.9232,-126 233.9232,-122 169.0768,-122 169.0768,-86 260.9232,-86 260.9232,-122"/>
<text text-anchor="middle" x="215" y="-99.8" font-family="Times,serif" font-size="14.00" fill="#000000">!environment</text>
</g>
<!-- !environment&#45;&gt;CoreModule -->
<g id="edge2" class="edge">
<title>!environment&#45;&gt;CoreModule</title>
<path fill="none" stroke="#000000" d="M215,-122.1061C215,-122.1061 215,-140.991 215,-140.991"/>
<polygon fill="#000000" stroke="#000000" points="211.5001,-140.9909 215,-150.991 218.5001,-140.991 211.5001,-140.9909"/>
</g>
<!-- RoutingModule -->
<g id="node4" class="node">
<title>RoutingModule</title>
<polygon fill="#8dd3c7" stroke="#000000" points="151.1681,-122 148.1681,-126 127.1681,-126 124.1681,-122 46.8319,-122 46.8319,-86 151.1681,-86 151.1681,-122"/>
<text text-anchor="middle" x="99" y="-99.8" font-family="Times,serif" font-size="14.00" fill="#000000">RoutingModule</text>
</g>
<!-- RoutingModule&#45;&gt;CoreModule -->
<g id="edge3" class="edge">
<title>RoutingModule&#45;&gt;CoreModule</title>
<path fill="none" stroke="#000000" d="M126.125,-122.1061C126.125,-141.3391 126.125,-169 126.125,-169 126.125,-169 161.6039,-169 161.6039,-169"/>
<polygon fill="#000000" stroke="#000000" points="161.604,-172.5001 171.6039,-169 161.6039,-165.5001 161.604,-172.5001"/>
</g>
</g>
</svg>
