<?xml version="1.0" encoding="UTF-8" standalone="no"?>
<!DOCTYPE svg PUBLIC "-//W3C//DTD SVG 1.1//EN"
 "http://www.w3.org/Graphics/SVG/1.1/DTD/svg11.dtd">
<!-- Generated by graphviz version 2.40.1 (20161225.0304)
 -->
<!-- Title: dependencies Pages: 1 -->
<svg width="639pt" height="284pt"
 viewBox="0.00 0.00 639.00 284.00" xmlns="http://www.w3.org/2000/svg" xmlns:xlink="http://www.w3.org/1999/xlink">
<g id="graph0" class="graph" transform="scale(1 1) rotate(0) translate(4 280)">
<title>dependencies</title>
<polygon fill="#ffffff" stroke="transparent" points="-4,4 -4,-280 635,-280 635,4 -4,4"/>
<text text-anchor="start" x="294.5091" y="-42.4" font-family="sans-serif" font-weight="bold" font-size="14.00" fill="#000000">Legend</text>
<polygon fill="#ffffb3" stroke="transparent" points="81.5,-10 81.5,-30 101.5,-30 101.5,-10 81.5,-10"/>
<text text-anchor="start" x="105.129" y="-15.4" font-family="sans-serif" font-size="14.00" fill="#000000"> &#160;Declarations</text>
<polygon fill="#8dd3c7" stroke="transparent" points="194.5,-10 194.5,-30 214.5,-30 214.5,-10 194.5,-10"/>
<text text-anchor="start" x="218.2251" y="-15.4" font-family="sans-serif" font-size="14.00" fill="#000000"> &#160;Module</text>
<polygon fill="#80b1d3" stroke="transparent" points="280.5,-10 280.5,-30 300.5,-30 300.5,-10 280.5,-10"/>
<text text-anchor="start" x="304.2812" y="-15.4" font-family="sans-serif" font-size="14.00" fill="#000000"> &#160;Bootstrap</text>
<polygon fill="#fdb462" stroke="transparent" points="377.5,-10 377.5,-30 397.5,-30 397.5,-10 377.5,-10"/>
<text text-anchor="start" x="401.1732" y="-15.4" font-family="sans-serif" font-size="14.00" fill="#000000"> &#160;Providers</text>
<polygon fill="#fb8072" stroke="transparent" points="473.5,-10 473.5,-30 493.5,-30 493.5,-10 473.5,-10"/>
<text text-anchor="start" x="497.2258" y="-15.4" font-family="sans-serif" font-size="14.00" fill="#000000"> &#160;Exports</text>
<g id="clust1" class="cluster">
<title>cluster_SelectionFiltersModule</title>
<polygon fill="none" stroke="#000000" stroke-dasharray="1,5" points="8,-70 8,-268 623,-268 623,-70 8,-70"/>
</g>
<g id="clust2" class="cluster">
<title>cluster_SelectionFiltersModule_declarations</title>
<polygon fill="none" stroke="#000000" points="198,-78 198,-130 615,-130 615,-78 198,-78"/>
</g>
<g id="clust5" class="cluster">
<title>cluster_SelectionFiltersModule_imports</title>
<polygon fill="none" stroke="#000000" points="16,-78 16,-130 190,-130 190,-78 16,-78"/>
</g>
<g id="clust6" class="cluster">
<title>cluster_SelectionFiltersModule_exports</title>
<polygon fill="none" stroke="#000000" points="161,-208 161,-260 407,-260 407,-208 161,-208"/>
</g>
<!-- NgxDhis2SelectionFiltersComponent -->
<g id="node1" class="node">
<title>NgxDhis2SelectionFiltersComponent</title>
<polygon fill="#ffffb3" stroke="#000000" points="607.2533,-122 380.7467,-122 380.7467,-86 607.2533,-86 607.2533,-122"/>
<text text-anchor="middle" x="494" y="-99.8" font-family="Times,serif" font-size="14.00" fill="#000000">NgxDhis2SelectionFiltersComponent</text>
</g>
<!-- SelectionFiltersModule -->
<g id="node3" class="node">
<title>SelectionFiltersModule</title>
<polygon fill="#8dd3c7" stroke="#000000" points="357.9228,-187 354.9228,-191 333.9228,-191 330.9228,-187 210.0772,-187 210.0772,-151 357.9228,-151 357.9228,-187"/>
<text text-anchor="middle" x="284" y="-164.8" font-family="Times,serif" font-size="14.00" fill="#000000">SelectionFiltersModule</text>
</g>
<!-- NgxDhis2SelectionFiltersComponent&#45;&gt;SelectionFiltersModule -->
<g id="edge1" class="edge">
<title>NgxDhis2SelectionFiltersComponent&#45;&gt;SelectionFiltersModule</title>
<path fill="none" stroke="#000000" d="M389.875,-122.1061C389.875,-141.3391 389.875,-169 389.875,-169 389.875,-169 367.8217,-169 367.8217,-169"/>
<polygon fill="#000000" stroke="#000000" points="367.8217,-165.5001 357.8217,-169 367.8217,-172.5001 367.8217,-165.5001"/>
</g>
<!-- SummarizeSelectionPipe -->
<g id="node2" class="node">
<title>SummarizeSelectionPipe</title>
<polygon fill="#ffffb3" stroke="#000000" points="362.245,-122 205.755,-122 205.755,-86 362.245,-86 362.245,-122"/>
<text text-anchor="middle" x="284" y="-99.8" font-family="Times,serif" font-size="14.00" fill="#000000">SummarizeSelectionPipe</text>
</g>
<!-- SummarizeSelectionPipe&#45;&gt;SelectionFiltersModule -->
<g id="edge2" class="edge">
<title>SummarizeSelectionPipe&#45;&gt;SelectionFiltersModule</title>
<path fill="none" stroke="#000000" d="M284,-122.1061C284,-122.1061 284,-140.991 284,-140.991"/>
<polygon fill="#000000" stroke="#000000" points="280.5001,-140.9909 284,-150.991 287.5001,-140.991 280.5001,-140.9909"/>
</g>
<!-- NgxDhis2SelectionFiltersComponent  -->
<g id="node5" class="node">
<title>NgxDhis2SelectionFiltersComponent </title>
<polygon fill="#fb8072" stroke="#000000" points="399.2533,-252 168.7467,-252 168.7467,-216 399.2533,-216 399.2533,-252"/>
<text text-anchor="middle" x="284" y="-229.8" font-family="Times,serif" font-size="14.00" fill="#000000">NgxDhis2SelectionFiltersComponent </text>
</g>
<!-- SelectionFiltersModule&#45;&gt;NgxDhis2SelectionFiltersComponent  -->
<g id="edge4" class="edge">
<title>SelectionFiltersModule&#45;&gt;NgxDhis2SelectionFiltersComponent </title>
<path fill="none" stroke="#000000" stroke-dasharray="5,2" d="M284,-187.1061C284,-187.1061 284,-205.991 284,-205.991"/>
<polygon fill="#000000" stroke="#000000" points="280.5001,-205.9909 284,-215.991 287.5001,-205.991 280.5001,-205.9909"/>
</g>
<!-- InterventionFilterModule -->
<g id="node4" class="node">
<title>InterventionFilterModule</title>
<polygon fill="#8dd3c7" stroke="#000000" points="182.3019,-122 179.3019,-126 158.3019,-126 155.3019,-122 23.6981,-122 23.6981,-86 182.3019,-86 182.3019,-122"/>
<text text-anchor="middle" x="103" y="-99.8" font-family="Times,serif" font-size="14.00" fill="#000000">InterventionFilterModule</text>
</g>
<!-- InterventionFilterModule&#45;&gt;SelectionFiltersModule -->
<g id="edge3" class="edge">
<title>InterventionFilterModule&#45;&gt;SelectionFiltersModule</title>
<path fill="none" stroke="#000000" d="M175.5121,-122.1061C175.5121,-141.3391 175.5121,-169 175.5121,-169 175.5121,-169 200.1366,-169 200.1366,-169"/>
<polygon fill="#000000" stroke="#000000" points="200.1367,-172.5001 210.1366,-169 200.1366,-165.5001 200.1367,-172.5001"/>
</g>
</g>
</svg>
