<?xml version="1.0" encoding="UTF-8" standalone="no"?>
<!DOCTYPE svg PUBLIC "-//W3C//DTD SVG 1.1//EN"
 "http://www.w3.org/Graphics/SVG/1.1/DTD/svg11.dtd">
<!-- Generated by graphviz version 2.40.1 (20161225.0304)
 -->
<!-- Title: dependencies Pages: 1 -->
<svg width="1160pt" height="360pt"
 viewBox="0.00 0.00 1160.00 360.00" xmlns="http://www.w3.org/2000/svg" xmlns:xlink="http://www.w3.org/1999/xlink">
<g id="graph0" class="graph" transform="scale(1 1) rotate(0) translate(4 356)">
<title>dependencies</title>
<polygon fill="#ffffff" stroke="transparent" points="-4,4 -4,-356 1156,-356 1156,4 -4,4"/>
<text text-anchor="start" x="555.0091" y="-42.4" font-family="sans-serif" font-weight="bold" font-size="14.00" fill="#000000">Legend</text>
<polygon fill="#ffffb3" stroke="transparent" points="342,-10 342,-30 362,-30 362,-10 342,-10"/>
<text text-anchor="start" x="365.629" y="-15.4" font-family="sans-serif" font-size="14.00" fill="#000000"> &#160;Declarations</text>
<polygon fill="#8dd3c7" stroke="transparent" points="455,-10 455,-30 475,-30 475,-10 455,-10"/>
<text text-anchor="start" x="478.7251" y="-15.4" font-family="sans-serif" font-size="14.00" fill="#000000"> &#160;Module</text>
<polygon fill="#80b1d3" stroke="transparent" points="541,-10 541,-30 561,-30 561,-10 541,-10"/>
<text text-anchor="start" x="564.7812" y="-15.4" font-family="sans-serif" font-size="14.00" fill="#000000"> &#160;Bootstrap</text>
<polygon fill="#fdb462" stroke="transparent" points="638,-10 638,-30 658,-30 658,-10 638,-10"/>
<text text-anchor="start" x="661.6732" y="-15.4" font-family="sans-serif" font-size="14.00" fill="#000000"> &#160;Providers</text>
<polygon fill="#fb8072" stroke="transparent" points="734,-10 734,-30 754,-30 754,-10 734,-10"/>
<text text-anchor="start" x="757.7258" y="-15.4" font-family="sans-serif" font-size="14.00" fill="#000000"> &#160;Exports</text>
<g id="clust1" class="cluster">
<title>cluster_AppModule</title>
<polygon fill="none" stroke="#000000" stroke-dasharray="1,5" points="335,-146 335,-344 583,-344 583,-146 335,-146"/>
</g>
<g id="clust2" class="cluster">
<title>cluster_AppModule_declarations</title>
<polygon fill="none" stroke="#000000" points="453,-154 453,-206 575,-206 575,-154 453,-154"/>
</g>
<g id="clust4" class="cluster">
<title>cluster_AppModule_imports</title>
<polygon fill="none" stroke="#000000" points="343,-154 343,-206 445,-206 445,-154 343,-154"/>
</g>
<g id="clust6" class="cluster">
<title>cluster_AppModule_bootstrap</title>
<polygon fill="none" stroke="#000000" points="397,-284 397,-336 521,-336 521,-284 397,-284"/>
</g>
<g id="clust8" class="cluster">
<title>cluster_CoreModule</title>
<polygon fill="none" stroke="#000000" stroke-dasharray="1,5" points="8,-70 8,-138 760,-138 760,-70 8,-70"/>
</g>
<g id="clust9" class="cluster">
<title>cluster_CoreModule_declarations</title>
<polygon fill="none" stroke="#000000" points="572,-78 572,-130 752,-130 752,-78 572,-78"/>
</g>
<g id="clust11" class="cluster">
<title>cluster_CoreModule_imports</title>
<polygon fill="none" stroke="#000000" points="334,-78 334,-130 564,-130 564,-78 334,-78"/>
</g>
<g id="clust12" class="cluster">
<title>cluster_CoreModule_exports</title>
<polygon fill="none" stroke="#000000" points="16,-78 16,-130 326,-130 326,-78 16,-78"/>
</g>
<g id="clust15" class="cluster">
<title>cluster_DataEntryModule</title>
<polygon fill="none" stroke="#000000" stroke-dasharray="1,5" points="768,-70 768,-206 962,-206 962,-70 768,-70"/>
</g>
<g id="clust17" class="cluster">
<title>cluster_DataEntryModule_imports</title>
<polygon fill="none" stroke="#000000" points="776,-78 776,-130 954,-130 954,-78 776,-78"/>
</g>
<g id="clust27" class="cluster">
<title>cluster_ReportModule</title>
<polygon fill="none" stroke="#000000" stroke-dasharray="1,5" points="970,-70 970,-206 1144,-206 1144,-70 970,-70"/>
</g>
<g id="clust29" class="cluster">
<title>cluster_ReportModule_imports</title>
<polygon fill="none" stroke="#000000" points="978,-78 978,-130 1136,-130 1136,-78 978,-78"/>
</g>
<!-- AppComponent -->
<g id="node1" class="node">
<title>AppComponent</title>
<polygon fill="#ffffb3" stroke="#000000" points="566.9399,-198 461.0601,-198 461.0601,-162 566.9399,-162 566.9399,-198"/>
<text text-anchor="middle" x="514" y="-175.8" font-family="Times,serif" font-size="14.00" fill="#000000">AppComponent</text>
</g>
<!-- AppModule -->
<g id="node2" class="node">
<title>AppModule</title>
<polygon fill="#8dd3c7" stroke="#000000" points="500.6571,-263 497.6571,-267 476.6571,-267 473.6571,-263 417.3429,-263 417.3429,-227 500.6571,-227 500.6571,-263"/>
<text text-anchor="middle" x="459" y="-240.8" font-family="Times,serif" font-size="14.00" fill="#000000">AppModule</text>
</g>
<!-- AppComponent&#45;&gt;AppModule -->
<g id="edge1" class="edge">
<title>AppComponent&#45;&gt;AppModule</title>
<path fill="none" stroke="#000000" d="M481.0544,-198.1061C481.0544,-198.1061 481.0544,-216.991 481.0544,-216.991"/>
<polygon fill="#000000" stroke="#000000" points="477.5544,-216.9909 481.0544,-226.991 484.5544,-216.991 477.5544,-216.9909"/>
</g>
<!-- AppComponent  -->
<g id="node4" class="node">
<title>AppComponent </title>
<polygon fill="#80b1d3" stroke="#000000" points="513.439,-328 404.561,-328 404.561,-292 513.439,-292 513.439,-328"/>
<text text-anchor="middle" x="459" y="-305.8" font-family="Times,serif" font-size="14.00" fill="#000000">AppComponent </text>
</g>
<!-- AppModule&#45;&gt;AppComponent  -->
<g id="edge3" class="edge">
<title>AppModule&#45;&gt;AppComponent </title>
<path fill="none" stroke="#000000" stroke-dasharray="1,5" d="M459,-263.1061C459,-263.1061 459,-281.991 459,-281.991"/>
<polygon fill="#000000" stroke="#000000" points="455.5001,-281.9909 459,-291.991 462.5001,-281.991 455.5001,-281.9909"/>
</g>
<!-- CoreModule -->
<g id="node3" class="node">
<title>CoreModule</title>
<polygon fill="#8dd3c7" stroke="#000000" points="437.2619,-198 434.2619,-202 413.2619,-202 410.2619,-198 350.7381,-198 350.7381,-162 437.2619,-162 437.2619,-198"/>
<text text-anchor="middle" x="394" y="-175.8" font-family="Times,serif" font-size="14.00" fill="#000000">CoreModule</text>
</g>
<!-- CoreModule&#45;&gt;AppModule -->
<g id="edge2" class="edge">
<title>CoreModule&#45;&gt;AppModule</title>
<path fill="none" stroke="#000000" d="M427.2763,-198.1061C427.2763,-198.1061 427.2763,-216.991 427.2763,-216.991"/>
<polygon fill="#000000" stroke="#000000" points="423.7764,-216.9909 427.2763,-226.991 430.7764,-216.991 423.7764,-216.9909"/>
</g>
<!-- NavigationBarComponent  -->
<g id="node8" class="node">
<title>NavigationBarComponent </title>
<polygon fill="#fb8072" stroke="#000000" points="317.752,-122 150.248,-122 150.248,-86 317.752,-86 317.752,-122"/>
<text text-anchor="middle" x="234" y="-99.8" font-family="Times,serif" font-size="14.00" fill="#000000">NavigationBarComponent </text>
</g>
<!-- CoreModule&#45;&gt;NavigationBarComponent  -->
<g id="edge7" class="edge">
<title>CoreModule&#45;&gt;NavigationBarComponent </title>
<path fill="none" stroke="#000000" stroke-dasharray="5,2" d="M350.7017,-174C303.317,-174 234,-174 234,-174 234,-174 234,-132.0267 234,-132.0267"/>
<polygon fill="#000000" stroke="#000000" points="237.5001,-132.0267 234,-122.0267 230.5001,-132.0268 237.5001,-132.0267"/>
</g>
<!-- RoutingModule  -->
<g id="node9" class="node">
<title>RoutingModule </title>
<polygon fill="#fb8072" stroke="#000000" points="132.1677,-122 23.8323,-122 23.8323,-86 132.1677,-86 132.1677,-122"/>
<text text-anchor="middle" x="78" y="-99.8" font-family="Times,serif" font-size="14.00" fill="#000000">RoutingModule </text>
</g>
<!-- CoreModule&#45;&gt;RoutingModule  -->
<g id="edge8" class="edge">
<title>CoreModule&#45;&gt;RoutingModule </title>
<path fill="none" stroke="#000000" stroke-dasharray="5,2" d="M350.7241,-186C264.1797,-186 78,-186 78,-186 78,-186 78,-132.1985 78,-132.1985"/>
<polygon fill="#000000" stroke="#000000" points="81.5001,-132.1984 78,-122.1985 74.5001,-132.1985 81.5001,-132.1984"/>
</g>
<!-- NavigationBarComponent -->
<g id="node5" class="node">
<title>NavigationBarComponent</title>
<polygon fill="#ffffb3" stroke="#000000" points="743.752,-122 580.248,-122 580.248,-86 743.752,-86 743.752,-122"/>
<text text-anchor="middle" x="662" y="-99.8" font-family="Times,serif" font-size="14.00" fill="#000000">NavigationBarComponent</text>
</g>
<!-- NavigationBarComponent&#45;&gt;CoreModule -->
<g id="edge4" class="edge">
<title>NavigationBarComponent&#45;&gt;CoreModule</title>
<path fill="none" stroke="#000000" d="M662,-122.1097C662,-131.897 662,-142 662,-142 662,-142 408.4603,-142 408.4603,-142 408.4603,-142 408.4603,-151.8903 408.4603,-151.8903"/>
<polygon fill="#000000" stroke="#000000" points="404.9604,-151.8903 408.4603,-161.8903 411.9604,-151.8904 404.9604,-151.8903"/>
</g>
<!-- !environment -->
<g id="node6" class="node">
<title>!environment</title>
<polygon fill="#8dd3c7" stroke="#000000" points="555.9232,-122 552.9232,-126 531.9232,-126 528.9232,-122 464.0768,-122 464.0768,-86 555.9232,-86 555.9232,-122"/>
<text text-anchor="middle" x="510" y="-99.8" font-family="Times,serif" font-size="14.00" fill="#000000">!environment</text>
</g>
<!-- !environment&#45;&gt;CoreModule -->
<g id="edge5" class="edge">
<title>!environment&#45;&gt;CoreModule</title>
<path fill="none" stroke="#000000" d="M464.1138,-104C458.0086,-104 453.8072,-104 453.8072,-104 453.8072,-104 453.8072,-180 453.8072,-180 453.8072,-180 447.4646,-180 447.4646,-180"/>
<polygon fill="#000000" stroke="#000000" points="447.4646,-176.5001 437.4646,-180 447.4645,-183.5001 447.4646,-176.5001"/>
</g>
<!-- RoutingModule -->
<g id="node7" class="node">
<title>RoutingModule</title>
<polygon fill="#8dd3c7" stroke="#000000" points="446.1681,-122 443.1681,-126 422.1681,-126 419.1681,-122 341.8319,-122 341.8319,-86 446.1681,-86 446.1681,-122"/>
<text text-anchor="middle" x="394" y="-99.8" font-family="Times,serif" font-size="14.00" fill="#000000">RoutingModule</text>
</g>
<!-- RoutingModule&#45;&gt;CoreModule -->
<g id="edge6" class="edge">
<title>RoutingModule&#45;&gt;CoreModule</title>
<path fill="none" stroke="#000000" d="M379.5397,-122.0109C379.5397,-122.0109 379.5397,-151.855 379.5397,-151.855"/>
<polygon fill="#000000" stroke="#000000" points="376.0398,-151.8549 379.5397,-161.855 383.0398,-151.855 376.0398,-151.8549"/>
</g>
<!-- DataEntryRoutingModule -->
<g id="node10" class="node">
<title>DataEntryRoutingModule</title>
<polygon fill="#8dd3c7" stroke="#000000" points="946.1979,-122 943.1979,-126 922.1979,-126 919.1979,-122 783.8021,-122 783.8021,-86 946.1979,-86 946.1979,-122"/>
<text text-anchor="middle" x="865" y="-99.8" font-family="Times,serif" font-size="14.00" fill="#000000">DataEntryRoutingModule</text>
</g>
<!-- DataEntryModule -->
<g id="node11" class="node">
<title>DataEntryModule</title>
<polygon fill="#8dd3c7" stroke="#000000" points="923.58,-198 920.58,-202 899.58,-202 896.58,-198 806.42,-198 806.42,-162 923.58,-162 923.58,-198"/>
<text text-anchor="middle" x="865" y="-175.8" font-family="Times,serif" font-size="14.00" fill="#000000">DataEntryModule</text>
</g>
<!-- DataEntryRoutingModule&#45;&gt;DataEntryModule -->
<g id="edge9" class="edge">
<title>DataEntryRoutingModule&#45;&gt;DataEntryModule</title>
<path fill="none" stroke="#000000" d="M865,-122.0109C865,-122.0109 865,-151.855 865,-151.855"/>
<polygon fill="#000000" stroke="#000000" points="861.5001,-151.8549 865,-161.855 868.5001,-151.855 861.5001,-151.8549"/>
</g>
<!-- ReportRoutingModule -->
<g id="node12" class="node">
<title>ReportRoutingModule</title>
<polygon fill="#8dd3c7" stroke="#000000" points="1128.2702,-122 1125.2702,-126 1104.2702,-126 1101.2702,-122 985.7298,-122 985.7298,-86 1128.2702,-86 1128.2702,-122"/>
<text text-anchor="middle" x="1057" y="-99.8" font-family="Times,serif" font-size="14.00" fill="#000000">ReportRoutingModule</text>
</g>
<!-- ReportModule -->
<g id="node13" class="node">
<title>ReportModule</title>
<polygon fill="#8dd3c7" stroke="#000000" points="1105.6528,-198 1102.6528,-202 1081.6528,-202 1078.6528,-198 1008.3472,-198 1008.3472,-162 1105.6528,-162 1105.6528,-198"/>
<text text-anchor="middle" x="1057" y="-175.8" font-family="Times,serif" font-size="14.00" fill="#000000">ReportModule</text>
</g>
<!-- ReportRoutingModule&#45;&gt;ReportModule -->
<g id="edge10" class="edge">
<title>ReportRoutingModule&#45;&gt;ReportModule</title>
<path fill="none" stroke="#000000" d="M1057,-122.0109C1057,-122.0109 1057,-151.855 1057,-151.855"/>
<polygon fill="#000000" stroke="#000000" points="1053.5001,-151.8549 1057,-161.855 1060.5001,-151.855 1053.5001,-151.8549"/>
</g>
</g>
</svg>
