<?xml version="1.0" encoding="UTF-8" standalone="no"?>
<!DOCTYPE svg PUBLIC "-//W3C//DTD SVG 1.1//EN"
 "http://www.w3.org/Graphics/SVG/1.1/DTD/svg11.dtd">
<!-- Generated by graphviz version 2.40.1 (20161225.0304)
 -->
<!-- Title: dependencies Pages: 1 -->
<svg width="3669pt" height="510pt"
 viewBox="0.00 0.00 3669.00 510.00" xmlns="http://www.w3.org/2000/svg" xmlns:xlink="http://www.w3.org/1999/xlink">
<g id="graph0" class="graph" transform="scale(1 1) rotate(0) translate(4 506)">
<title>dependencies</title>
<polygon fill="#ffffff" stroke="transparent" points="-4,4 -4,-506 3665,-506 3665,4 -4,4"/>
<text text-anchor="start" x="1809.5091" y="-42.4" font-family="sans-serif" font-weight="bold" font-size="14.00" fill="#000000">Legend</text>
<polygon fill="#ffffb3" stroke="transparent" points="1596.5,-10 1596.5,-30 1616.5,-30 1616.5,-10 1596.5,-10"/>
<text text-anchor="start" x="1620.129" y="-15.4" font-family="sans-serif" font-size="14.00" fill="#000000"> &#160;Declarations</text>
<polygon fill="#8dd3c7" stroke="transparent" points="1709.5,-10 1709.5,-30 1729.5,-30 1729.5,-10 1709.5,-10"/>
<text text-anchor="start" x="1733.2251" y="-15.4" font-family="sans-serif" font-size="14.00" fill="#000000"> &#160;Module</text>
<polygon fill="#80b1d3" stroke="transparent" points="1795.5,-10 1795.5,-30 1815.5,-30 1815.5,-10 1795.5,-10"/>
<text text-anchor="start" x="1819.2812" y="-15.4" font-family="sans-serif" font-size="14.00" fill="#000000"> &#160;Bootstrap</text>
<polygon fill="#fdb462" stroke="transparent" points="1892.5,-10 1892.5,-30 1912.5,-30 1912.5,-10 1892.5,-10"/>
<text text-anchor="start" x="1916.1732" y="-15.4" font-family="sans-serif" font-size="14.00" fill="#000000"> &#160;Providers</text>
<polygon fill="#fb8072" stroke="transparent" points="1988.5,-10 1988.5,-30 2008.5,-30 2008.5,-10 1988.5,-10"/>
<text text-anchor="start" x="2012.2258" y="-15.4" font-family="sans-serif" font-size="14.00" fill="#000000"> &#160;Exports</text>
<g id="clust1" class="cluster">
<title>cluster_ActionTrackerTableModule</title>
<polygon fill="none" stroke="#000000" stroke-dasharray="1,5" points="8,-70 8,-274 2084,-274 2084,-70 8,-70"/>
</g>
<g id="clust2" class="cluster">
<title>cluster_ActionTrackerTableModule_declarations</title>
<polygon fill="none" stroke="#000000" points="16,-78 16,-130 2076,-130 2076,-78 16,-78"/>
</g>
<g id="clust15" class="cluster">
<title>cluster_ActionTrackerTableModule_exports</title>
<polygon fill="none" stroke="#000000" points="141,-214 141,-266 2076,-266 2076,-214 141,-214"/>
</g>
<g id="clust18" class="cluster">
<title>cluster_AppModule</title>
<polygon fill="none" stroke="#000000" stroke-dasharray="1,5" points="2747,-282 2747,-494 3268,-494 3268,-282 2747,-282"/>
</g>
<g id="clust19" class="cluster">
<title>cluster_AppModule_declarations</title>
<polygon fill="none" stroke="#000000" points="2755,-290 2755,-342 3033,-342 3033,-290 2755,-290"/>
</g>
<g id="clust22" class="cluster">
<title>cluster_AppModule_imports</title>
<polygon fill="none" stroke="#000000" points="3041,-290 3041,-342 3260,-342 3260,-290 3041,-290"/>
</g>
<g id="clust24" class="cluster">
<title>cluster_AppModule_bootstrap</title>
<polygon fill="none" stroke="#000000" points="2973,-434 2973,-486 3097,-486 3097,-434 2973,-434"/>
</g>
<g id="clust26" class="cluster">
<title>cluster_CoreModule</title>
<polygon fill="none" stroke="#000000" stroke-dasharray="1,5" points="2823,-206 2823,-274 3575,-274 3575,-206 2823,-206"/>
</g>
<g id="clust27" class="cluster">
<title>cluster_CoreModule_declarations</title>
<polygon fill="none" stroke="#000000" points="3387,-214 3387,-266 3567,-266 3567,-214 3387,-214"/>
</g>
<g id="clust29" class="cluster">
<title>cluster_CoreModule_imports</title>
<polygon fill="none" stroke="#000000" points="3149,-214 3149,-266 3379,-266 3379,-214 3149,-214"/>
</g>
<g id="clust30" class="cluster">
<title>cluster_CoreModule_exports</title>
<polygon fill="none" stroke="#000000" points="2831,-214 2831,-266 3141,-266 3141,-214 2831,-214"/>
</g>
<g id="clust33" class="cluster">
<title>cluster_InterventionFilterModule</title>
<polygon fill="none" stroke="#000000" stroke-dasharray="1,5" points="2092,-70 2092,-198 2298,-198 2298,-70 2092,-70"/>
</g>
<g id="clust39" class="cluster">
<title>cluster_InterventionFilterModule_providers</title>
<polygon fill="none" stroke="#000000" points="2100,-78 2100,-130 2290,-130 2290,-78 2100,-78"/>
</g>
<g id="clust40" class="cluster">
<title>cluster_ReportModule</title>
<polygon fill="none" stroke="#000000" stroke-dasharray="1,5" points="3113,-70 3113,-198 3287,-198 3287,-70 3113,-70"/>
</g>
<g id="clust42" class="cluster">
<title>cluster_ReportModule_imports</title>
<polygon fill="none" stroke="#000000" points="3121,-78 3121,-130 3279,-130 3279,-78 3121,-78"/>
</g>
<g id="clust58" class="cluster">
<title>cluster_SelectionFiltersModule</title>
<polygon fill="none" stroke="#000000" stroke-dasharray="1,5" points="2306,-138 2306,-350 2739,-350 2739,-138 2306,-138"/>
</g>
<g id="clust59" class="cluster">
<title>cluster_SelectionFiltersModule_declarations</title>
<polygon fill="none" stroke="#000000" points="2314,-146 2314,-198 2731,-198 2731,-146 2314,-146"/>
</g>
<g id="clust63" class="cluster">
<title>cluster_SelectionFiltersModule_exports</title>
<polygon fill="none" stroke="#000000" points="2399,-290 2399,-342 2645,-342 2645,-290 2399,-290"/>
</g>
<g id="clust66" class="cluster">
<title>cluster_SharedModule</title>
<polygon fill="none" stroke="#000000" stroke-dasharray="1,5" points="3276,-358 3276,-426 3653,-426 3653,-358 3276,-358"/>
</g>
<g id="clust69" class="cluster">
<title>cluster_SharedModule_exports</title>
<polygon fill="none" stroke="#000000" points="3284,-366 3284,-418 3645,-418 3645,-366 3284,-366"/>
</g>
<!-- ActionTrackerWidgetComponent -->
<g id="node1" class="node">
<title>ActionTrackerWidgetComponent</title>
<polygon fill="#ffffb3" stroke="#000000" points="2068.1629,-122 1863.8371,-122 1863.8371,-86 2068.1629,-86 2068.1629,-122"/>
<text text-anchor="middle" x="1966" y="-99.8" font-family="Times,serif" font-size="14.00" fill="#000000">ActionTrackerWidgetComponent</text>
</g>
<!-- ActionTrackerTableModule -->
<g id="node12" class="node">
<title>ActionTrackerTableModule</title>
<polygon fill="#8dd3c7" stroke="#000000" points="1160.5422,-190 1157.5422,-194 1136.5422,-194 1133.5422,-190 987.4578,-190 987.4578,-154 1160.5422,-154 1160.5422,-190"/>
<text text-anchor="middle" x="1074" y="-167.8" font-family="Times,serif" font-size="14.00" fill="#000000">ActionTrackerTableModule</text>
</g>
<!-- ActionTrackerWidgetComponent&#45;&gt;ActionTrackerTableModule -->
<g id="edge1" class="edge">
<title>ActionTrackerWidgetComponent&#45;&gt;ActionTrackerTableModule</title>
<path fill="none" stroke="#000000" d="M1914.8968,-122.0267C1914.8968,-142.7672 1914.8968,-174 1914.8968,-174 1914.8968,-174 1170.8235,-174 1170.8235,-174"/>
<polygon fill="#000000" stroke="#000000" points="1170.8236,-170.5001 1160.8235,-174 1170.8235,-177.5001 1170.8236,-170.5001"/>
</g>
<!-- InterventionFilterModule -->
<g id="node34" class="node">
<title>InterventionFilterModule</title>
<polygon fill="#8dd3c7" stroke="#000000" points="2266.3019,-190 2263.3019,-194 2242.3019,-194 2239.3019,-190 2107.6981,-190 2107.6981,-154 2266.3019,-154 2266.3019,-190"/>
<text text-anchor="middle" x="2187" y="-167.8" font-family="Times,serif" font-size="14.00" fill="#000000">InterventionFilterModule</text>
</g>
<!-- ActionTrackerWidgetComponent&#45;&gt;InterventionFilterModule -->
<g id="edge32" class="edge">
<title>ActionTrackerWidgetComponent&#45;&gt;InterventionFilterModule</title>
<path fill="none" stroke="#000000" d="M2016.8532,-122.2819C2016.8532,-137.9478 2016.8532,-158 2016.8532,-158 2016.8532,-158 2097.4065,-158 2097.4065,-158"/>
<polygon fill="#000000" stroke="#000000" points="2097.4065,-161.5001 2107.4065,-158 2097.4064,-154.5001 2097.4065,-161.5001"/>
</g>
<!-- AutoFilledInputComponent -->
<g id="node2" class="node">
<title>AutoFilledInputComponent</title>
<polygon fill="#ffffb3" stroke="#000000" points="355.5504,-122 184.4496,-122 184.4496,-86 355.5504,-86 355.5504,-122"/>
<text text-anchor="middle" x="270" y="-99.8" font-family="Times,serif" font-size="14.00" fill="#000000">AutoFilledInputComponent</text>
</g>
<!-- AutoFilledInputComponent&#45;&gt;ActionTrackerTableModule -->
<g id="edge2" class="edge">
<title>AutoFilledInputComponent&#45;&gt;ActionTrackerTableModule</title>
<path fill="none" stroke="#000000" d="M270,-122.2667C270,-140.5552 270,-166 270,-166 270,-166 977.194,-166 977.194,-166"/>
<polygon fill="#000000" stroke="#000000" points="977.194,-169.5001 987.194,-166 977.194,-162.5001 977.194,-169.5001"/>
</g>
<!-- ClickOutsideDirective -->
<g id="node3" class="node">
<title>ClickOutsideDirective</title>
<polygon fill="#ffffb3" stroke="#000000" points="165.9622,-122 24.0378,-122 24.0378,-86 165.9622,-86 165.9622,-122"/>
<text text-anchor="middle" x="95" y="-99.8" font-family="Times,serif" font-size="14.00" fill="#000000">ClickOutsideDirective</text>
</g>
<!-- ClickOutsideDirective&#45;&gt;ActionTrackerTableModule -->
<g id="edge3" class="edge">
<title>ClickOutsideDirective&#45;&gt;ActionTrackerTableModule</title>
<path fill="none" stroke="#000000" d="M157.5145,-122.0348C157.5145,-141.5762 157.5145,-170 157.5145,-170 157.5145,-170 977.3666,-170 977.3666,-170"/>
<polygon fill="#000000" stroke="#000000" points="977.3666,-173.5001 987.3666,-170 977.3665,-166.5001 977.3666,-173.5001"/>
</g>
<!-- FormComponent -->
<g id="node4" class="node">
<title>FormComponent</title>
<polygon fill="#ffffb3" stroke="#000000" points="1845.6667,-122 1734.3333,-122 1734.3333,-86 1845.6667,-86 1845.6667,-122"/>
<text text-anchor="middle" x="1790" y="-99.8" font-family="Times,serif" font-size="14.00" fill="#000000">FormComponent</text>
</g>
<!-- FormComponent&#45;&gt;ActionTrackerTableModule -->
<g id="edge4" class="edge">
<title>FormComponent&#45;&gt;ActionTrackerTableModule</title>
<path fill="none" stroke="#000000" d="M1788.3459,-122.308C1788.3459,-142.1455 1788.3459,-171 1788.3459,-171 1788.3459,-171 1170.5224,-171 1170.5224,-171"/>
<polygon fill="#000000" stroke="#000000" points="1170.5225,-167.5001 1160.5224,-171 1170.5224,-174.5001 1170.5225,-167.5001"/>
</g>
<!-- FormInputItemComponent -->
<g id="node5" class="node">
<title>FormInputItemComponent</title>
<polygon fill="#ffffb3" stroke="#000000" points="1716.3738,-122 1549.6262,-122 1549.6262,-86 1716.3738,-86 1716.3738,-122"/>
<text text-anchor="middle" x="1633" y="-99.8" font-family="Times,serif" font-size="14.00" fill="#000000">FormInputItemComponent</text>
</g>
<!-- FormInputItemComponent&#45;&gt;ActionTrackerTableModule -->
<g id="edge5" class="edge">
<title>FormInputItemComponent&#45;&gt;ActionTrackerTableModule</title>
<path fill="none" stroke="#000000" d="M1599.5731,-122.1686C1599.5731,-141.0898 1599.5731,-168 1599.5731,-168 1599.5731,-168 1170.7877,-168 1170.7877,-168"/>
<polygon fill="#000000" stroke="#000000" points="1170.7877,-164.5001 1160.7877,-168 1170.7877,-171.5001 1170.7877,-164.5001"/>
</g>
<!-- SelectBoxInputComponent -->
<g id="node6" class="node">
<title>SelectBoxInputComponent</title>
<polygon fill="#ffffb3" stroke="#000000" points="1531.4283,-122 1362.5717,-122 1362.5717,-86 1531.4283,-86 1531.4283,-122"/>
<text text-anchor="middle" x="1447" y="-99.8" font-family="Times,serif" font-size="14.00" fill="#000000">SelectBoxInputComponent</text>
</g>
<!-- SelectBoxInputComponent&#45;&gt;ActionTrackerTableModule -->
<g id="edge6" class="edge">
<title>SelectBoxInputComponent&#45;&gt;ActionTrackerTableModule</title>
<path fill="none" stroke="#000000" d="M1439.4865,-122.002C1439.4865,-139.6754 1439.4865,-164 1439.4865,-164 1439.4865,-164 1170.6152,-164 1170.6152,-164"/>
<polygon fill="#000000" stroke="#000000" points="1170.6152,-160.5001 1160.6152,-164 1170.6152,-167.5001 1170.6152,-160.5001"/>
</g>
<!-- TextAreaInputComponent -->
<g id="node7" class="node">
<title>TextAreaInputComponent</title>
<polygon fill="#ffffb3" stroke="#000000" points="1344.738,-122 1181.262,-122 1181.262,-86 1344.738,-86 1344.738,-122"/>
<text text-anchor="middle" x="1263" y="-99.8" font-family="Times,serif" font-size="14.00" fill="#000000">TextAreaInputComponent</text>
</g>
<!-- TextAreaInputComponent&#45;&gt;ActionTrackerTableModule -->
<g id="edge7" class="edge">
<title>TextAreaInputComponent&#45;&gt;ActionTrackerTableModule</title>
<path fill="none" stroke="#000000" d="M1254.5475,-122.0352C1254.5475,-138.7344 1254.5475,-161 1254.5475,-161 1254.5475,-161 1170.572,-161 1170.572,-161"/>
<polygon fill="#000000" stroke="#000000" points="1170.5721,-157.5001 1160.572,-161 1170.572,-164.5001 1170.5721,-157.5001"/>
</g>
<!-- TextViewComponent -->
<g id="node8" class="node">
<title>TextViewComponent</title>
<polygon fill="#ffffb3" stroke="#000000" points="1162.8089,-122 1025.1911,-122 1025.1911,-86 1162.8089,-86 1162.8089,-122"/>
<text text-anchor="middle" x="1094" y="-99.8" font-family="Times,serif" font-size="14.00" fill="#000000">TextViewComponent</text>
</g>
<!-- TextViewComponent&#45;&gt;ActionTrackerTableModule -->
<g id="edge8" class="edge">
<title>TextViewComponent&#45;&gt;ActionTrackerTableModule</title>
<path fill="none" stroke="#000000" d="M1092.9334,-122.2228C1092.9334,-122.2228 1092.9334,-143.7269 1092.9334,-143.7269"/>
<polygon fill="#000000" stroke="#000000" points="1089.4335,-143.7269 1092.9334,-153.7269 1096.4335,-143.727 1089.4335,-143.7269"/>
</g>
<!-- WidgetContextMenuComponent -->
<g id="node9" class="node">
<title>WidgetContextMenuComponent</title>
<polygon fill="#ffffb3" stroke="#000000" points="1007.5349,-122 808.4651,-122 808.4651,-86 1007.5349,-86 1007.5349,-122"/>
<text text-anchor="middle" x="908" y="-99.8" font-family="Times,serif" font-size="14.00" fill="#000000">WidgetContextMenuComponent</text>
</g>
<!-- WidgetContextMenuComponent&#45;&gt;ActionTrackerTableModule -->
<g id="edge9" class="edge">
<title>WidgetContextMenuComponent&#45;&gt;ActionTrackerTableModule</title>
<path fill="none" stroke="#000000" d="M997.6231,-122.2228C997.6231,-122.2228 997.6231,-143.7269 997.6231,-143.7269"/>
<polygon fill="#000000" stroke="#000000" points="994.1231,-143.7269 997.6231,-153.7269 1001.1231,-143.727 994.1231,-143.7269"/>
</g>
<!-- WidgetItemLoaderComponent -->
<g id="node10" class="node">
<title>WidgetItemLoaderComponent</title>
<polygon fill="#ffffb3" stroke="#000000" points="789.8417,-122 602.1583,-122 602.1583,-86 789.8417,-86 789.8417,-122"/>
<text text-anchor="middle" x="696" y="-99.8" font-family="Times,serif" font-size="14.00" fill="#000000">WidgetItemLoaderComponent</text>
</g>
<!-- WidgetItemLoaderComponent&#45;&gt;ActionTrackerTableModule -->
<g id="edge10" class="edge">
<title>WidgetItemLoaderComponent&#45;&gt;ActionTrackerTableModule</title>
<path fill="none" stroke="#000000" d="M727.3069,-122.2819C727.3069,-137.9478 727.3069,-158 727.3069,-158 727.3069,-158 977.409,-158 977.409,-158"/>
<polygon fill="#000000" stroke="#000000" points="977.409,-161.5001 987.409,-158 977.409,-154.5001 977.409,-161.5001"/>
</g>
<!-- WidgetNotificationBarComponent -->
<g id="node11" class="node">
<title>WidgetNotificationBarComponent</title>
<polygon fill="#ffffb3" stroke="#000000" points="584.4044,-122 373.5956,-122 373.5956,-86 584.4044,-86 584.4044,-122"/>
<text text-anchor="middle" x="479" y="-99.8" font-family="Times,serif" font-size="14.00" fill="#000000">WidgetNotificationBarComponent</text>
</g>
<!-- WidgetNotificationBarComponent&#45;&gt;ActionTrackerTableModule -->
<g id="edge11" class="edge">
<title>WidgetNotificationBarComponent&#45;&gt;ActionTrackerTableModule</title>
<path fill="none" stroke="#000000" d="M578.4364,-122.0336C578.4364,-139.0597 578.4364,-162 578.4364,-162 578.4364,-162 977.396,-162 977.396,-162"/>
<polygon fill="#000000" stroke="#000000" points="977.3961,-165.5001 987.396,-162 977.396,-158.5001 977.3961,-165.5001"/>
</g>
<!-- ActionTrackerWidgetComponent  -->
<g id="node13" class="node">
<title>ActionTrackerWidgetComponent </title>
<polygon fill="#fb8072" stroke="#000000" points="2067.6631,-258 1860.3369,-258 1860.3369,-222 2067.6631,-222 2067.6631,-258"/>
<text text-anchor="middle" x="1964" y="-235.8" font-family="Times,serif" font-size="14.00" fill="#000000">ActionTrackerWidgetComponent </text>
</g>
<!-- ActionTrackerTableModule&#45;&gt;ActionTrackerWidgetComponent  -->
<g id="edge12" class="edge">
<title>ActionTrackerTableModule&#45;&gt;ActionTrackerWidgetComponent </title>
<path fill="none" stroke="#000000" stroke-dasharray="5,2" d="M1160.7335,-177C1384.8567,-177 1965.875,-177 1965.875,-177 1965.875,-177 1965.875,-211.7778 1965.875,-211.7778"/>
<polygon fill="#000000" stroke="#000000" points="1962.3751,-211.7778 1965.875,-221.7778 1969.3751,-211.7778 1962.3751,-211.7778"/>
</g>
<!-- AutoFilledInputComponent  -->
<g id="node14" class="node">
<title>AutoFilledInputComponent </title>
<polygon fill="#fb8072" stroke="#000000" points="1842.5498,-258 1667.4502,-258 1667.4502,-222 1842.5498,-222 1842.5498,-258"/>
<text text-anchor="middle" x="1755" y="-235.8" font-family="Times,serif" font-size="14.00" fill="#000000">AutoFilledInputComponent </text>
</g>
<!-- ActionTrackerTableModule&#45;&gt;AutoFilledInputComponent  -->
<g id="edge13" class="edge">
<title>ActionTrackerTableModule&#45;&gt;AutoFilledInputComponent </title>
<path fill="none" stroke="#000000" stroke-dasharray="5,2" d="M1160.5748,-181C1330.645,-181 1691.956,-181 1691.956,-181 1691.956,-181 1691.956,-211.9775 1691.956,-211.9775"/>
<polygon fill="#000000" stroke="#000000" points="1688.4561,-211.9774 1691.956,-221.9775 1695.4561,-211.9775 1688.4561,-211.9774"/>
</g>
<!-- FormComponent  -->
<g id="node15" class="node">
<title>FormComponent </title>
<polygon fill="#fb8072" stroke="#000000" points="1649.6663,-258 1534.3337,-258 1534.3337,-222 1649.6663,-222 1649.6663,-258"/>
<text text-anchor="middle" x="1592" y="-235.8" font-family="Times,serif" font-size="14.00" fill="#000000">FormComponent </text>
</g>
<!-- ActionTrackerTableModule&#45;&gt;FormComponent  -->
<g id="edge14" class="edge">
<title>ActionTrackerTableModule&#45;&gt;FormComponent </title>
<path fill="none" stroke="#000000" stroke-dasharray="5,2" d="M1160.6551,-184C1295.9365,-184 1541.99,-184 1541.99,-184 1541.99,-184 1541.99,-211.973 1541.99,-211.973"/>
<polygon fill="#000000" stroke="#000000" points="1538.4901,-211.973 1541.99,-221.973 1545.4901,-211.973 1538.4901,-211.973"/>
</g>
<!-- FormInputItemComponent  -->
<g id="node16" class="node">
<title>FormInputItemComponent </title>
<polygon fill="#fb8072" stroke="#000000" points="1516.3742,-258 1345.6258,-258 1345.6258,-222 1516.3742,-222 1516.3742,-258"/>
<text text-anchor="middle" x="1431" y="-235.8" font-family="Times,serif" font-size="14.00" fill="#000000">FormInputItemComponent </text>
</g>
<!-- ActionTrackerTableModule&#45;&gt;FormInputItemComponent  -->
<g id="edge15" class="edge">
<title>ActionTrackerTableModule&#45;&gt;FormInputItemComponent </title>
<path fill="none" stroke="#000000" stroke-dasharray="5,2" d="M1160.769,-187C1243.0901,-187 1354.2996,-187 1354.2996,-187 1354.2996,-187 1354.2996,-211.7604 1354.2996,-211.7604"/>
<polygon fill="#000000" stroke="#000000" points="1350.7997,-211.7604 1354.2996,-221.7604 1357.7997,-211.7604 1350.7997,-211.7604"/>
</g>
<!-- SelectBoxInputComponent  -->
<g id="node17" class="node">
<title>SelectBoxInputComponent </title>
<polygon fill="#fb8072" stroke="#000000" points="1327.9278,-258 1156.0722,-258 1156.0722,-222 1327.9278,-222 1327.9278,-258"/>
<text text-anchor="middle" x="1242" y="-235.8" font-family="Times,serif" font-size="14.00" fill="#000000">SelectBoxInputComponent </text>
</g>
<!-- ActionTrackerTableModule&#45;&gt;SelectBoxInputComponent  -->
<g id="edge16" class="edge">
<title>ActionTrackerTableModule&#45;&gt;SelectBoxInputComponent </title>
<path fill="none" stroke="#000000" stroke-dasharray="5,2" d="M1149.897,-190.2228C1149.897,-210.3652 1149.897,-240 1149.897,-240 1149.897,-240 1150.5013,-240 1150.5013,-240"/>
<polygon fill="#000000" stroke="#000000" points="1145.9402,-243.5002 1155.9402,-240 1145.9401,-236.5002 1145.9402,-243.5002"/>
</g>
<!-- TextAreaInputComponent  -->
<g id="node18" class="node">
<title>TextAreaInputComponent </title>
<polygon fill="#fb8072" stroke="#000000" points="1137.738,-258 970.262,-258 970.262,-222 1137.738,-222 1137.738,-258"/>
<text text-anchor="middle" x="1054" y="-235.8" font-family="Times,serif" font-size="14.00" fill="#000000">TextAreaInputComponent </text>
</g>
<!-- ActionTrackerTableModule&#45;&gt;TextAreaInputComponent  -->
<g id="edge17" class="edge">
<title>ActionTrackerTableModule&#45;&gt;TextAreaInputComponent </title>
<path fill="none" stroke="#000000" stroke-dasharray="5,2" d="M1062.5489,-190.2228C1062.5489,-190.2228 1062.5489,-211.7269 1062.5489,-211.7269"/>
<polygon fill="#000000" stroke="#000000" points="1059.049,-211.7269 1062.5489,-221.7269 1066.049,-211.727 1059.049,-211.7269"/>
</g>
<!-- TextViewComponent  -->
<g id="node19" class="node">
<title>TextViewComponent </title>
<polygon fill="#fb8072" stroke="#000000" points="952.3087,-258 811.6913,-258 811.6913,-222 952.3087,-222 952.3087,-258"/>
<text text-anchor="middle" x="882" y="-235.8" font-family="Times,serif" font-size="14.00" fill="#000000">TextViewComponent </text>
</g>
<!-- ActionTrackerTableModule&#45;&gt;TextViewComponent  -->
<g id="edge18" class="edge">
<title>ActionTrackerTableModule&#45;&gt;TextViewComponent </title>
<path fill="none" stroke="#000000" stroke-dasharray="5,2" d="M987.2684,-186C936.3869,-186 882,-186 882,-186 882,-186 882,-211.7181 882,-211.7181"/>
<polygon fill="#000000" stroke="#000000" points="878.5001,-211.718 882,-221.7181 885.5001,-211.7181 878.5001,-211.718"/>
</g>
<!-- WidgetContextMenuComponent  -->
<g id="node20" class="node">
<title>WidgetContextMenuComponent </title>
<polygon fill="#fb8072" stroke="#000000" points="793.5344,-258 590.4656,-258 590.4656,-222 793.5344,-222 793.5344,-258"/>
<text text-anchor="middle" x="692" y="-235.8" font-family="Times,serif" font-size="14.00" fill="#000000">WidgetContextMenuComponent </text>
</g>
<!-- ActionTrackerTableModule&#45;&gt;WidgetContextMenuComponent  -->
<g id="edge19" class="edge">
<title>ActionTrackerTableModule&#45;&gt;WidgetContextMenuComponent </title>
<path fill="none" stroke="#000000" stroke-dasharray="5,2" d="M987.1965,-182C867.0482,-182 664.6931,-182 664.6931,-182 664.6931,-182 664.6931,-211.9664 664.6931,-211.9664"/>
<polygon fill="#000000" stroke="#000000" points="661.1932,-211.9663 664.6931,-221.9664 668.1932,-211.9664 661.1932,-211.9663"/>
</g>
<!-- WidgetItemLoaderComponent  -->
<g id="node21" class="node">
<title>WidgetItemLoaderComponent </title>
<polygon fill="#fb8072" stroke="#000000" points="572.8419,-258 381.1581,-258 381.1581,-222 572.8419,-222 572.8419,-258"/>
<text text-anchor="middle" x="477" y="-235.8" font-family="Times,serif" font-size="14.00" fill="#000000">WidgetItemLoaderComponent </text>
</g>
<!-- ActionTrackerTableModule&#45;&gt;WidgetItemLoaderComponent  -->
<g id="edge20" class="edge">
<title>ActionTrackerTableModule&#45;&gt;WidgetItemLoaderComponent </title>
<path fill="none" stroke="#000000" stroke-dasharray="5,2" d="M987.1911,-178C821.6146,-178 477,-178 477,-178 477,-178 477,-211.7333 477,-211.7333"/>
<polygon fill="#000000" stroke="#000000" points="473.5001,-211.7333 477,-221.7333 480.5001,-211.7333 473.5001,-211.7333"/>
</g>
<!-- WidgetNotificationBarComponent  -->
<g id="node22" class="node">
<title>WidgetNotificationBarComponent </title>
<polygon fill="#fb8072" stroke="#000000" points="362.904,-258 149.096,-258 149.096,-222 362.904,-222 362.904,-258"/>
<text text-anchor="middle" x="256" y="-235.8" font-family="Times,serif" font-size="14.00" fill="#000000">WidgetNotificationBarComponent </text>
</g>
<!-- ActionTrackerTableModule&#45;&gt;WidgetNotificationBarComponent  -->
<g id="edge21" class="edge">
<title>ActionTrackerTableModule&#45;&gt;WidgetNotificationBarComponent </title>
<path fill="none" stroke="#000000" stroke-dasharray="5,2" d="M987.4423,-174C797.1802,-174 359.3635,-174 359.3635,-174 359.3635,-174 359.3635,-211.9652 359.3635,-211.9652"/>
<polygon fill="#000000" stroke="#000000" points="355.8635,-211.9652 359.3635,-221.9652 362.8635,-211.9652 355.8635,-211.9652"/>
</g>
<!-- SharedModule -->
<g id="node27" class="node">
<title>SharedModule</title>
<polygon fill="#8dd3c7" stroke="#000000" points="3147.4231,-334 3144.4231,-338 3123.4231,-338 3120.4231,-334 3048.5769,-334 3048.5769,-298 3147.4231,-298 3147.4231,-334"/>
<text text-anchor="middle" x="3098" y="-311.8" font-family="Times,serif" font-size="14.00" fill="#000000">SharedModule</text>
</g>
<!-- ActionTrackerTableModule&#45;&gt;SharedModule -->
<g id="edge40" class="edge">
<title>ActionTrackerTableModule&#45;&gt;SharedModule</title>
<path fill="none" stroke="#000000" d="M1143.758,-190.1789C1143.758,-223.2788 1143.758,-290 1143.758,-290 1143.758,-290 3069.7482,-290 3069.7482,-290 3069.7482,-290 3069.7482,-290.7942 3069.7482,-290.7942"/>
<polygon fill="#000000" stroke="#000000" points="3066.2483,-287.9421 3069.7482,-297.9421 3073.2483,-287.9422 3066.2483,-287.9421"/>
</g>
<!-- AppComponent -->
<g id="node23" class="node">
<title>AppComponent</title>
<polygon fill="#ffffb3" stroke="#000000" points="3024.9399,-334 2919.0601,-334 2919.0601,-298 3024.9399,-298 3024.9399,-334"/>
<text text-anchor="middle" x="2972" y="-311.8" font-family="Times,serif" font-size="14.00" fill="#000000">AppComponent</text>
</g>
<!-- AppModule -->
<g id="node25" class="node">
<title>AppModule</title>
<polygon fill="#8dd3c7" stroke="#000000" points="3076.6571,-410 3073.6571,-414 3052.6571,-414 3049.6571,-410 2993.3429,-410 2993.3429,-374 3076.6571,-374 3076.6571,-410"/>
<text text-anchor="middle" x="3035" y="-387.8" font-family="Times,serif" font-size="14.00" fill="#000000">AppModule</text>
</g>
<!-- AppComponent&#45;&gt;AppModule -->
<g id="edge22" class="edge">
<title>AppComponent&#45;&gt;AppModule</title>
<path fill="none" stroke="#000000" d="M3008.9457,-334.0109C3008.9457,-334.0109 3008.9457,-363.855 3008.9457,-363.855"/>
<polygon fill="#000000" stroke="#000000" points="3005.4457,-363.8549 3008.9457,-373.855 3012.4457,-363.855 3005.4457,-363.8549"/>
</g>
<!-- DataEntryComponent -->
<g id="node24" class="node">
<title>DataEntryComponent</title>
<polygon fill="#ffffb3" stroke="#000000" points="2901.3627,-334 2762.6373,-334 2762.6373,-298 2901.3627,-298 2901.3627,-334"/>
<text text-anchor="middle" x="2832" y="-311.8" font-family="Times,serif" font-size="14.00" fill="#000000">DataEntryComponent</text>
</g>
<!-- DataEntryComponent&#45;&gt;AppModule -->
<g id="edge23" class="edge">
<title>DataEntryComponent&#45;&gt;AppModule</title>
<path fill="none" stroke="#000000" d="M2832,-334.0109C2832,-356.4852 2832,-392 2832,-392 2832,-392 2982.9383,-392 2982.9383,-392"/>
<polygon fill="#000000" stroke="#000000" points="2982.9383,-395.5001 2992.9383,-392 2982.9382,-388.5001 2982.9383,-395.5001"/>
</g>
<!-- AppComponent  -->
<g id="node28" class="node">
<title>AppComponent </title>
<polygon fill="#80b1d3" stroke="#000000" points="3089.439,-478 2980.561,-478 2980.561,-442 3089.439,-442 3089.439,-478"/>
<text text-anchor="middle" x="3035" y="-455.8" font-family="Times,serif" font-size="14.00" fill="#000000">AppComponent </text>
</g>
<!-- AppModule&#45;&gt;AppComponent  -->
<g id="edge26" class="edge">
<title>AppModule&#45;&gt;AppComponent </title>
<path fill="none" stroke="#000000" stroke-dasharray="1,5" d="M3035,-410.2228C3035,-410.2228 3035,-431.7269 3035,-431.7269"/>
<polygon fill="#000000" stroke="#000000" points="3031.5001,-431.7269 3035,-441.7269 3038.5001,-431.727 3031.5001,-431.7269"/>
</g>
<!-- CoreModule -->
<g id="node26" class="node">
<title>CoreModule</title>
<polygon fill="#8dd3c7" stroke="#000000" points="3252.2619,-334 3249.2619,-338 3228.2619,-338 3225.2619,-334 3165.7381,-334 3165.7381,-298 3252.2619,-298 3252.2619,-334"/>
<text text-anchor="middle" x="3209" y="-311.8" font-family="Times,serif" font-size="14.00" fill="#000000">CoreModule</text>
</g>
<!-- CoreModule&#45;&gt;AppModule -->
<g id="edge24" class="edge">
<title>CoreModule&#45;&gt;AppModule</title>
<path fill="none" stroke="#000000" d="M3209,-334.1985C3209,-358.3563 3209,-398 3209,-398 3209,-398 3086.6773,-398 3086.6773,-398"/>
<polygon fill="#000000" stroke="#000000" points="3086.6774,-394.5001 3076.6773,-398 3086.6773,-401.5001 3086.6774,-394.5001"/>
</g>
<!-- NavigationBarComponent  -->
<g id="node32" class="node">
<title>NavigationBarComponent </title>
<polygon fill="#fb8072" stroke="#000000" points="3132.752,-258 2965.248,-258 2965.248,-222 3132.752,-222 3132.752,-258"/>
<text text-anchor="middle" x="3049" y="-235.8" font-family="Times,serif" font-size="14.00" fill="#000000">NavigationBarComponent </text>
</g>
<!-- CoreModule&#45;&gt;NavigationBarComponent  -->
<g id="edge30" class="edge">
<title>CoreModule&#45;&gt;NavigationBarComponent </title>
<path fill="none" stroke="#000000" stroke-dasharray="5,2" d="M3209,-297.9489C3209,-283.627 3209,-266 3209,-266 3209,-266 3111.6667,-266 3111.6667,-266 3111.6667,-266 3111.6667,-265.2058 3111.6667,-265.2058"/>
<polygon fill="#000000" stroke="#000000" points="3115.1668,-268.0578 3111.6667,-258.0579 3108.1668,-268.0579 3115.1668,-268.0578"/>
</g>
<!-- RoutingModule  -->
<g id="node33" class="node">
<title>RoutingModule </title>
<polygon fill="#fb8072" stroke="#000000" points="2947.1677,-258 2838.8323,-258 2838.8323,-222 2947.1677,-222 2947.1677,-258"/>
<text text-anchor="middle" x="2893" y="-235.8" font-family="Times,serif" font-size="14.00" fill="#000000">RoutingModule </text>
</g>
<!-- CoreModule&#45;&gt;RoutingModule  -->
<g id="edge31" class="edge">
<title>CoreModule&#45;&gt;RoutingModule </title>
<path fill="none" stroke="#000000" stroke-dasharray="5,2" d="M3187.3096,-297.9445C3187.3096,-286.561 3187.3096,-274 3187.3096,-274 3187.3096,-274 2933.1821,-274 2933.1821,-274 2933.1821,-274 2933.1821,-268.1944 2933.1821,-268.1944"/>
<polygon fill="#000000" stroke="#000000" points="2936.6822,-268.1944 2933.1821,-258.1944 2929.6822,-268.1945 2936.6822,-268.1944"/>
</g>
<!-- SharedModule&#45;&gt;AppModule -->
<g id="edge25" class="edge">
<title>SharedModule&#45;&gt;AppModule</title>
<path fill="none" stroke="#000000" d="M3062.8085,-334.0109C3062.8085,-334.0109 3062.8085,-363.855 3062.8085,-363.855"/>
<polygon fill="#000000" stroke="#000000" points="3059.3086,-363.8549 3062.8085,-373.855 3066.3086,-363.855 3059.3086,-363.8549"/>
</g>
<!-- ActionTrackerTableModule  -->
<g id="node42" class="node">
<title>ActionTrackerTableModule </title>
<polygon fill="#fb8072" stroke="#000000" points="3637.0428,-410 3460.9572,-410 3460.9572,-374 3637.0428,-374 3637.0428,-410"/>
<text text-anchor="middle" x="3549" y="-387.8" font-family="Times,serif" font-size="14.00" fill="#000000">ActionTrackerTableModule </text>
</g>
<!-- SharedModule&#45;&gt;ActionTrackerTableModule  -->
<g id="edge42" class="edge">
<title>SharedModule&#45;&gt;ActionTrackerTableModule </title>
<path fill="none" stroke="#000000" stroke-dasharray="5,2" d="M3108.7167,-334.1097C3108.7167,-343.897 3108.7167,-354 3108.7167,-354 3108.7167,-354 3509.8024,-354 3509.8024,-354 3509.8024,-354 3509.8024,-363.8903 3509.8024,-363.8903"/>
<polygon fill="#000000" stroke="#000000" points="3506.3025,-363.8903 3509.8024,-373.8903 3513.3025,-363.8904 3506.3025,-363.8903"/>
</g>
<!-- SelectionFiltersModule  -->
<g id="node43" class="node">
<title>SelectionFiltersModule </title>
<polygon fill="#fb8072" stroke="#000000" points="3442.4222,-410 3291.5778,-410 3291.5778,-374 3442.4222,-374 3442.4222,-410"/>
<text text-anchor="middle" x="3367" y="-387.8" font-family="Times,serif" font-size="14.00" fill="#000000">SelectionFiltersModule </text>
</g>
<!-- SharedModule&#45;&gt;SelectionFiltersModule  -->
<g id="edge43" class="edge">
<title>SharedModule&#45;&gt;SelectionFiltersModule </title>
<path fill="none" stroke="#000000" stroke-dasharray="5,2" d="M3127.9639,-334.0267C3127.9639,-354.7672 3127.9639,-386 3127.9639,-386 3127.9639,-386 3281.3675,-386 3281.3675,-386"/>
<polygon fill="#000000" stroke="#000000" points="3281.3675,-389.5001 3291.3675,-386 3281.3674,-382.5001 3281.3675,-389.5001"/>
</g>
<!-- NavigationBarComponent -->
<g id="node29" class="node">
<title>NavigationBarComponent</title>
<polygon fill="#ffffb3" stroke="#000000" points="3558.752,-258 3395.248,-258 3395.248,-222 3558.752,-222 3558.752,-258"/>
<text text-anchor="middle" x="3477" y="-235.8" font-family="Times,serif" font-size="14.00" fill="#000000">NavigationBarComponent</text>
</g>
<!-- NavigationBarComponent&#45;&gt;CoreModule -->
<g id="edge27" class="edge">
<title>NavigationBarComponent&#45;&gt;CoreModule</title>
<path fill="none" stroke="#000000" d="M3418.7926,-258.1985C3418.7926,-282.3563 3418.7926,-322 3418.7926,-322 3418.7926,-322 3262.4692,-322 3262.4692,-322"/>
<polygon fill="#000000" stroke="#000000" points="3262.4692,-318.5001 3252.4692,-322 3262.4691,-325.5001 3262.4692,-318.5001"/>
</g>
<!-- !environment -->
<g id="node30" class="node">
<title>!environment</title>
<polygon fill="#8dd3c7" stroke="#000000" points="3370.9232,-258 3367.9232,-262 3346.9232,-262 3343.9232,-258 3279.0768,-258 3279.0768,-222 3370.9232,-222 3370.9232,-258"/>
<text text-anchor="middle" x="3325" y="-235.8" font-family="Times,serif" font-size="14.00" fill="#000000">!environment</text>
</g>
<!-- !environment&#45;&gt;CoreModule -->
<g id="edge28" class="edge">
<title>!environment&#45;&gt;CoreModule</title>
<path fill="none" stroke="#000000" d="M3285.4139,-258.0267C3285.4139,-278.7672 3285.4139,-310 3285.4139,-310 3285.4139,-310 3262.5641,-310 3262.5641,-310"/>
<polygon fill="#000000" stroke="#000000" points="3262.5641,-306.5001 3252.5641,-310 3262.564,-313.5001 3262.5641,-306.5001"/>
</g>
<!-- RoutingModule -->
<g id="node31" class="node">
<title>RoutingModule</title>
<polygon fill="#8dd3c7" stroke="#000000" points="3261.1681,-258 3258.1681,-262 3237.1681,-262 3234.1681,-258 3156.8319,-258 3156.8319,-222 3261.1681,-222 3261.1681,-258"/>
<text text-anchor="middle" x="3209" y="-235.8" font-family="Times,serif" font-size="14.00" fill="#000000">RoutingModule</text>
</g>
<!-- RoutingModule&#45;&gt;CoreModule -->
<g id="edge29" class="edge">
<title>RoutingModule&#45;&gt;CoreModule</title>
<path fill="none" stroke="#000000" d="M3230.6904,-258.0109C3230.6904,-258.0109 3230.6904,-287.855 3230.6904,-287.855"/>
<polygon fill="#000000" stroke="#000000" points="3227.1905,-287.8549 3230.6904,-297.855 3234.1905,-287.855 3227.1905,-287.8549"/>
</g>
<!-- InterventionFilterModule&#45;&gt;ActionTrackerWidgetComponent  -->
<g id="edge33" class="edge">
<title>InterventionFilterModule&#45;&gt;ActionTrackerWidgetComponent </title>
<path fill="none" stroke="#000000" stroke-dasharray="5,2" d="M2160.6164,-190.2921C2160.6164,-212.2057 2160.6164,-246 2160.6164,-246 2160.6164,-246 2077.7779,-246 2077.7779,-246"/>
<polygon fill="#000000" stroke="#000000" points="2077.778,-242.5001 2067.7779,-246 2077.7779,-249.5001 2077.778,-242.5001"/>
</g>
<!-- SelectionFiltersModule -->
<g id="node40" class="node">
<title>SelectionFiltersModule</title>
<polygon fill="#8dd3c7" stroke="#000000" points="2595.9228,-258 2592.9228,-262 2571.9228,-262 2568.9228,-258 2448.0772,-258 2448.0772,-222 2595.9228,-222 2595.9228,-258"/>
<text text-anchor="middle" x="2522" y="-235.8" font-family="Times,serif" font-size="14.00" fill="#000000">SelectionFiltersModule</text>
</g>
<!-- InterventionFilterModule&#45;&gt;SelectionFiltersModule -->
<g id="edge38" class="edge">
<title>InterventionFilterModule&#45;&gt;SelectionFiltersModule</title>
<path fill="none" stroke="#000000" d="M2213.3836,-190.2667C2213.3836,-208.5552 2213.3836,-234 2213.3836,-234 2213.3836,-234 2438.0787,-234 2438.0787,-234"/>
<polygon fill="#000000" stroke="#000000" points="2438.0787,-237.5001 2448.0787,-234 2438.0786,-230.5001 2438.0787,-237.5001"/>
</g>
<!-- InterventionService -->
<g id="node35" class="node">
<title>InterventionService</title>
<ellipse fill="#fdb462" stroke="#000000" cx="2195" cy="-104" rx="87.377" ry="18"/>
<text text-anchor="middle" x="2195" y="-99.8" font-family="Times,serif" font-size="14.00" fill="#000000">InterventionService</text>
</g>
<!-- InterventionService&#45;&gt;InterventionFilterModule -->
<g id="edge34" class="edge">
<title>InterventionService&#45;&gt;InterventionFilterModule</title>
<path fill="none" stroke="#000000" d="M2187,-122.2228C2187,-122.2228 2187,-143.7269 2187,-143.7269"/>
<polygon fill="#000000" stroke="#000000" points="2183.5001,-143.7269 2187,-153.7269 2190.5001,-143.727 2183.5001,-143.7269"/>
</g>
<!-- ReportRoutingModule -->
<g id="node36" class="node">
<title>ReportRoutingModule</title>
<polygon fill="#8dd3c7" stroke="#000000" points="3271.2702,-122 3268.2702,-126 3247.2702,-126 3244.2702,-122 3128.7298,-122 3128.7298,-86 3271.2702,-86 3271.2702,-122"/>
<text text-anchor="middle" x="3200" y="-99.8" font-family="Times,serif" font-size="14.00" fill="#000000">ReportRoutingModule</text>
</g>
<!-- ReportModule -->
<g id="node37" class="node">
<title>ReportModule</title>
<polygon fill="#8dd3c7" stroke="#000000" points="3248.6528,-190 3245.6528,-194 3224.6528,-194 3221.6528,-190 3151.3472,-190 3151.3472,-154 3248.6528,-154 3248.6528,-190"/>
<text text-anchor="middle" x="3200" y="-167.8" font-family="Times,serif" font-size="14.00" fill="#000000">ReportModule</text>
</g>
<!-- ReportRoutingModule&#45;&gt;ReportModule -->
<g id="edge35" class="edge">
<title>ReportRoutingModule&#45;&gt;ReportModule</title>
<path fill="none" stroke="#000000" d="M3200,-122.2228C3200,-122.2228 3200,-143.7269 3200,-143.7269"/>
<polygon fill="#000000" stroke="#000000" points="3196.5001,-143.7269 3200,-153.7269 3203.5001,-143.727 3196.5001,-143.7269"/>
</g>
<!-- NgxDhis2SelectionFiltersComponent -->
<g id="node38" class="node">
<title>NgxDhis2SelectionFiltersComponent</title>
<polygon fill="#ffffb3" stroke="#000000" points="2723.2533,-190 2496.7467,-190 2496.7467,-154 2723.2533,-154 2723.2533,-190"/>
<text text-anchor="middle" x="2610" y="-167.8" font-family="Times,serif" font-size="14.00" fill="#000000">NgxDhis2SelectionFiltersComponent</text>
</g>
<!-- NgxDhis2SelectionFiltersComponent&#45;&gt;SelectionFiltersModule -->
<g id="edge36" class="edge">
<title>NgxDhis2SelectionFiltersComponent&#45;&gt;SelectionFiltersModule</title>
<path fill="none" stroke="#000000" d="M2546.1673,-190.2228C2546.1673,-190.2228 2546.1673,-211.7269 2546.1673,-211.7269"/>
<polygon fill="#000000" stroke="#000000" points="2542.6673,-211.7269 2546.1673,-221.7269 2549.6673,-211.727 2542.6673,-211.7269"/>
</g>
<!-- SummarizeSelectionPipe -->
<g id="node39" class="node">
<title>SummarizeSelectionPipe</title>
<polygon fill="#ffffb3" stroke="#000000" points="2478.245,-190 2321.755,-190 2321.755,-154 2478.245,-154 2478.245,-190"/>
<text text-anchor="middle" x="2400" y="-167.8" font-family="Times,serif" font-size="14.00" fill="#000000">SummarizeSelectionPipe</text>
</g>
<!-- SummarizeSelectionPipe&#45;&gt;SelectionFiltersModule -->
<g id="edge37" class="edge">
<title>SummarizeSelectionPipe&#45;&gt;SelectionFiltersModule</title>
<path fill="none" stroke="#000000" d="M2463.3307,-190.2228C2463.3307,-190.2228 2463.3307,-211.7269 2463.3307,-211.7269"/>
<polygon fill="#000000" stroke="#000000" points="2459.8307,-211.7269 2463.3307,-221.7269 2466.8307,-211.727 2459.8307,-211.7269"/>
</g>
<!-- SelectionFiltersModule&#45;&gt;SharedModule -->
<g id="edge41" class="edge">
<title>SelectionFiltersModule&#45;&gt;SharedModule</title>
<path fill="none" stroke="#000000" d="M2546.5704,-258.0555C2546.5704,-269.439 2546.5704,-282 2546.5704,-282 2546.5704,-282 3090.7074,-282 3090.7074,-282 3090.7074,-282 3090.7074,-287.8056 3090.7074,-287.8056"/>
<polygon fill="#000000" stroke="#000000" points="3087.2075,-287.8055 3090.7074,-297.8056 3094.2075,-287.8056 3087.2075,-287.8055"/>
</g>
<!-- NgxDhis2SelectionFiltersComponent  -->
<g id="node41" class="node">
<title>NgxDhis2SelectionFiltersComponent </title>
<polygon fill="#fb8072" stroke="#000000" points="2637.2533,-334 2406.7467,-334 2406.7467,-298 2637.2533,-298 2637.2533,-334"/>
<text text-anchor="middle" x="2522" y="-311.8" font-family="Times,serif" font-size="14.00" fill="#000000">NgxDhis2SelectionFiltersComponent </text>
</g>
<!-- SelectionFiltersModule&#45;&gt;NgxDhis2SelectionFiltersComponent  -->
<g id="edge39" class="edge">
<title>SelectionFiltersModule&#45;&gt;NgxDhis2SelectionFiltersComponent </title>
<path fill="none" stroke="#000000" stroke-dasharray="5,2" d="M2497.4296,-258.0109C2497.4296,-258.0109 2497.4296,-287.855 2497.4296,-287.855"/>
<polygon fill="#000000" stroke="#000000" points="2493.9297,-287.8549 2497.4296,-297.855 2500.9297,-287.855 2493.9297,-287.8549"/>
</g>
</g>
</svg>
